<svg xmlns="http://www.w3.org/2000/svg" viewBox="0 0 1138.08 215.75"><defs><style>.cls-1{fill:none;}.cls-2{fill:#fff;}</style></defs><g id="Слой_2" data-name="Слой 2"><g id="Layer_1" data-name="Layer 1"><rect class="cls-1" width="1138.08" height="215.75"/><rect class="cls-2" x="140.79" y="38.57" width="25.61" height="130.58"/><rect class="cls-2" x="196.24" y="30.31" width="25.61" height="130.58"/><rect class="cls-2" x="29.89" y="55.07" width="25.61" height="130.58"/><rect class="cls-2" x="85.34" y="46.82" width="25.61" height="130.58"/><polygon class="cls-2" points="900.78 100.57 859.52 54.86 835.39 54.86 835.39 160.68 860.57 160.68 860.57 93.17 898.25 133.17 902.9 133.17 939.94 93.17 939.94 160.68 965.12 160.68 965.12 54.86 941 54.86 900.78 100.57"/><polygon class="cls-2" points="1085.12 54.86 1022.69 123.64 1022.69 54.86 997.5 54.86 997.5 160.68 1020.57 160.68 1083 91.9 1083 160.68 1108.19 160.68 1108.19 54.86 1085.12 54.86"/><path class="cls-2" d="M699.73,93.59c0,16.85,9.19,30.11,23.44,35.67l-26.61,31.42h30.9l24.2-28.57h26.16v28.57H803V54.86H738.88C715,54.86,699.73,71.16,699.73,93.59Zm78.09-15.45v31.32H743.54c-11.43,0-17.57-6.35-17.57-15.66,0-9.52,6.35-15.66,17.57-15.66Z"/><path class="cls-2" d="M582.7,76c-1.49,36.41-9.32,59.9-24.34,59.9h-3.81v25.39l4,.22c30.26,1.69,47-24.77,49.73-82.54h39.79v81.69h25.19V54.86H583.54Z"/><path class="cls-2" d="M487.88,53.38c-34.07,0-58.62,23.49-58.62,54.39,0,32,26.67,54.6,58.62,54.6,33.23,0,59-23.91,59-54.6C546.93,77.29,521.11,53.38,487.88,53.38Zm0,83.6c-19.26,0-32.38-12.49-32.38-29.21,0-17.14,13.12-29.21,32.38-29.21,19.05,0,32.81,12.7,32.81,29.21S506.93,137,487.88,137Z"/><path class="cls-2" d="M402.59,55.07H313.71l-.85,21.17c-1.27,30.47-9.31,59.47-24.34,59.89l-7,.21v49.31h25.39v-25h88.26v25h25.6V136.13h-18.2Zm-25.18,81.06H323.65c9.1-13.76,14-33.65,14.82-56.93h38.94Z"/></g></g></svg>