<svg viewBox="0 0 1138.08 215.75" xmlns="http://www.w3.org/2000/svg"><path d="m0 0h1138.08v215.75h-1138.08z" fill="none"/><path d="m140.79 38.57h25.61v130.58h-25.61z"/><path d="m196.24 30.31h25.61v130.58h-25.61z"/><path d="m29.89 55.07h25.61v130.58h-25.61z"/><path d="m85.34 46.82h25.61v130.58h-25.61z"/><path d="m900.78 100.57-41.26-45.71h-24.13v105.82h25.18v-67.51l37.68 40h4.65l37.04-40v67.51h25.18v-105.82h-24.12z"/><path d="m1085.12 54.86-62.43 68.78v-68.78h-25.19v105.82h23.07l62.43-68.78v68.78h25.19v-105.82z"/><path d="m699.73 93.59c0 16.85 9.19 30.11 23.44 35.67l-26.61 31.42h30.9l24.2-28.57h26.16v28.57h25.18v-105.82h-64.12c-23.88 0-39.15 16.3-39.15 38.73zm78.09-15.45v31.32h-34.28c-11.43 0-17.57-6.35-17.57-15.66 0-9.52 6.35-15.66 17.57-15.66z"/><path d="m582.7 76c-1.49 36.41-9.32 59.9-24.34 59.9h-3.81v25.39l4 .22c30.26 1.69 47-24.77 49.73-82.54h39.79v81.69h25.19v-105.8h-89.72z"/><path d="m487.88 53.38c-34.07 0-58.62 23.49-58.62 54.39 0 32 26.67 54.6 58.62 54.6 33.23 0 59-23.91 59-54.6.05-30.48-25.77-54.39-59-54.39zm0 83.6c-19.26 0-32.38-12.49-32.38-29.21 0-17.14 13.12-29.21 32.38-29.21 19.05 0 32.81 12.7 32.81 29.21s-13.76 29.23-32.81 29.23z"/><path d="m402.59 55.07h-88.88l-.85 21.17c-1.27 30.47-9.31 59.47-24.34 59.89l-7 .21v49.31h25.39v-25h88.26v25h25.6v-49.52h-18.2zm-25.18 81.06h-53.76c9.1-13.76 14-33.65 14.82-56.93h38.94z"/></svg>