<?xml version="1.0" encoding="utf-8"?>
<!-- Generator: Adobe Illustrator 23.0.5, SVG Export Plug-In . SVG Version: 6.00 Build 0)  -->
<svg version="1.1" id="Слой_1" xmlns="http://www.w3.org/2000/svg" xmlns:xlink="http://www.w3.org/1999/xlink" x="0px" y="0px"
	 viewBox="0 0 338 98" style="enable-background:new 0 0 338 98;" xml:space="preserve">
<style type="text/css">
	.st0{fill:#FFFFFF;}
	.st1{fill:#FBCD02;}
</style>
<g id="Слой_2">
	<g>
		<path class="st0" d="M159.1,55.8h-35.3c0.5,3.1,1.9,5.6,4.1,7.4c2.2,1.8,5,2.8,8.5,2.8c4.1,0,7.6-1.4,10.6-4.3l9.2,4.3
			c-2.3,3.3-5.1,5.7-8.3,7.3c-3.2,1.6-7,2.4-11.5,2.4c-6.9,0-12.4-2.2-16.8-6.5c-4.3-4.3-6.5-9.7-6.5-16.3c0-6.7,2.2-12.2,6.5-16.6
			c4.3-4.4,9.7-6.6,16.2-6.6c6.9,0,12.5,2.2,16.8,6.6c4.3,4.4,6.5,10.2,6.5,17.5L159.1,55.8z M148.2,47.2c-0.7-2.4-2.2-4.4-4.3-5.9
			c-2.1-1.5-4.6-2.3-7.4-2.3c-3.1,0-5.7,0.9-8.1,2.6c-1.4,1.1-2.8,3-4,5.7H148.2z"/>
		<path class="st0" d="M168,30.8h11v4.5c2.5-2.1,4.7-3.6,6.8-4.4c2-0.8,4.1-1.2,6.2-1.2c4.3,0,8,1.5,11,4.5
			c2.5,2.6,3.8,6.4,3.8,11.4v28.9H196V55.4c0-5.2-0.2-8.7-0.7-10.4c-0.5-1.7-1.3-3-2.4-3.9c-1.2-0.9-2.6-1.3-4.3-1.3
			c-2.2,0-4.1,0.7-5.7,2.2c-1.6,1.5-2.7,3.5-3.3,6.2c-0.3,1.4-0.5,4.3-0.5,8.9v17.5h-11V30.8z"/>
		<path class="st0" d="M238,29.7c4.1,0,8,1,11.6,3.1c3.6,2.1,6.5,4.9,8.5,8.4c2,3.5,3.1,7.4,3.1,11.5c0,4.1-1,8-3.1,11.6
			c-2,3.6-4.8,6.4-8.4,8.4s-7.4,3-11.7,3c-6.3,0-11.6-2.2-16.1-6.7c-4.4-4.5-6.7-9.9-6.7-16.3c0-6.8,2.5-12.5,7.5-17.1
			C227.2,31.6,232.3,29.7,238,29.7z M238.1,40c-3.4,0-6.2,1.2-8.5,3.6c-2.3,2.4-3.4,5.4-3.4,9.1c0,3.8,1.1,6.9,3.4,9.2
			c2.2,2.4,5.1,3.5,8.5,3.5s6.3-1.2,8.6-3.6c2.3-2.4,3.4-5.5,3.4-9.2c0-3.8-1.1-6.8-3.4-9.1C244.5,41.2,241.6,40,238.1,40z"/>
		<path class="st0" d="M271.4,14.7h11v16.1h6.5v9.4h-6.5v34.3h-11V40.2h-5.6v-9.4h5.6V14.7z"/>
		<path class="st1" d="M300.8,63.1c1.7,0,3.2,0.6,4.5,1.8c1.2,1.2,1.8,2.7,1.8,4.4s-0.6,3.2-1.8,4.5s-2.7,1.8-4.5,1.8
			c-1.7,0-3.2-0.6-4.5-1.8c-1.2-1.2-1.8-2.7-1.8-4.5s0.6-3.2,1.8-4.4C297.6,63.7,299,63.1,300.8,63.1z"/>
	</g>
</g>
<g>
	<g id="Слой_3">
		<g>
			<polygon class="st1" points="37.1,90 37.1,63.7 12.9,63.7 45.3,8.2 45.3,34.6 69,34.6 			"/>
		</g>
	</g>
</g>
</svg>
