<?xml version="1.0" encoding="utf-8"?>
<!-- Generator: Adobe Illustrator 25.3.1, SVG Export Plug-In . SVG Version: 6.00 Build 0)  -->
<svg version="1.1" id="Слой_1" xmlns="http://www.w3.org/2000/svg" xmlns:xlink="http://www.w3.org/1999/xlink" x="0px" y="0px"
	 viewBox="0 0 113.4 34" enable-background="new 0 0 113.4 34" xml:space="preserve">
<rect y="0" fill="none" width="113.4" height="34"/>
<g>
	<path fill="#FFFFFF" d="M47.6,10V7.6h-9.4v16.4h2.7v-6.8H47v-2.5h-6.1V10H47.6z M47.6,10"/>
	<path fill="#FFFFFF" d="M73.4,16.8v7.1h2.5v-7.8c0-1.8-0.9-5.1-4.8-5.1c-3,0-4.2,1.9-4.2,1.9l-0.2-1.6h-2.2v12.7h2.6v-6.4
		c0-2.8,1.5-4.1,3.4-4.1C72.8,13.3,73.4,15.2,73.4,16.8L73.4,16.8z M73.4,16.8"/>
	<path fill="#FFFFFF" d="M101,22.8l5.2-11.6h-2.6l-3.8,8.9l-4-8.9H93L98.5,23c-0.1,0.3-0.8,2-1.4,2.5c-0.5,0.5-1.1,0.6-1.9,0.6
		l0.4,2.2c0.6,0,1.1-0.1,1.7-0.3c0.5-0.2,1-0.5,1.4-0.9c1.2-1.2,2.2-3.8,2.2-3.8L101,22.8L101,22.8L101,22.8z M101,22.8"/>
	<path fill="#FFFFFF" d="M56,11h-0.7c-1.7,0-3.3,0.7-4.4,1.9c-1.2,1.2-1.8,2.8-1.8,4.5v0.5c0,1.7,0.7,3.3,1.8,4.5
		c1.2,1.2,2.8,1.8,4.4,1.8H56c1.7,0,3.3-0.7,4.5-1.8c1.2-1.2,1.8-2.8,1.8-4.5v-0.5c0-1.7-0.7-3.3-1.8-4.5C59.3,11.7,57.7,11,56,11
		L56,11z M59.8,17.8c0,1.1-0.4,2.1-1.2,2.8c-0.8,0.8-1.8,1.2-2.8,1.2h-0.1c-1.1,0-2.1-0.4-2.8-1.2c-0.8-0.8-1.2-1.8-1.2-2.8v-0.3
		c0-1.1,0.4-2.1,1.2-2.8c0.8-0.8,1.8-1.2,2.8-1.2h0.1c1.1,0,2.1,0.4,2.8,1.2c0.8,0.8,1.2,1.8,1.2,2.8L59.8,17.8z M59.8,17.8"/>
	<path fill="#FFFFFF" d="M88.7,6.7v5.7c-1.1-0.9-2.5-1.4-3.9-1.4h-0.4c-1.7,0-3.3,0.7-4.5,1.9c-1.2,1.2-1.8,2.8-1.8,4.5v0.5
		c0,1.7,0.7,3.3,1.8,4.5c1.2,1.2,2.8,1.8,4.5,1.8h0.4c1.6,0,3.1-0.6,4.3-1.7l0.2,1.4h2V6.7H88.7z M88.8,17.8c0,1.1-0.4,2.1-1.2,2.8
		c-0.8,0.8-1.8,1.2-2.8,1.2h-0.1c-1.1,0-2.1-0.4-2.8-1.2c-0.8-0.8-1.2-1.8-1.2-2.8v-0.3c0-1.1,0.4-2.1,1.2-2.8
		c0.8-0.8,1.8-1.2,2.8-1.2h0.1c1.1,0,2.1,0.4,2.8,1.2c0.8,0.8,1.2,1.8,1.2,2.8V17.8z M88.8,17.8"/>
	<path fill="#08A835" d="M21.1,23.8v-2.7c0-0.1,0-0.3-0.1-0.4c-0.1-0.1-0.2-0.2-0.3-0.3L18.3,19c-0.1-0.1-0.3-0.1-0.4-0.1
		c-0.1,0-0.3,0-0.4,0.1l-2.3,1.3c-0.1,0.1-0.2,0.2-0.3,0.3c-0.1,0.1-0.1,0.3-0.1,0.4v2.7c0,0.1,0,0.3,0.1,0.4
		c0.1,0.1,0.2,0.2,0.3,0.3l2.3,1.3c0.1,0.1,0.3,0.1,0.4,0.1c0.1,0,0.3,0,0.4-0.1l2.3-1.3c0.1-0.1,0.2-0.2,0.3-0.3
		C21.1,24.1,21.1,23.9,21.1,23.8L21.1,23.8z M21.1,23.8"/>
	<path fill="#08A835" d="M28.7,23.8v-2.7c0-0.1,0-0.3-0.1-0.4c-0.1-0.1-0.2-0.2-0.3-0.3L25.9,19c-0.1-0.1-0.3-0.1-0.4-0.1
		c-0.1,0-0.3,0-0.4,0.1l-2.3,1.3c-0.1,0.1-0.2,0.2-0.3,0.3c-0.1,0.1-0.1,0.3-0.1,0.4v2.7c0,0.1,0,0.3,0.1,0.4
		c0.1,0.1,0.2,0.2,0.3,0.3l2.3,1.3c0.1,0.1,0.3,0.1,0.4,0.1c0.1,0,0.3,0,0.4-0.1l2.3-1.3c0.1-0.1,0.2-0.2,0.3-0.3
		C28.6,24.1,28.7,23.9,28.7,23.8L28.7,23.8z M28.7,23.8"/>
	<path fill="#08A835" d="M17.3,17.2v-2.7c0-0.1,0-0.3-0.1-0.4c-0.1-0.1-0.2-0.2-0.3-0.3l-2.3-1.3c-0.1-0.1-0.3-0.1-0.4-0.1
		c-0.1,0-0.3,0-0.4,0.1l-2.3,1.3c-0.1,0.1-0.2,0.2-0.3,0.3C11,14.2,11,14.3,11,14.5v2.7c0,0.1,0,0.3,0.1,0.4
		c0.1,0.1,0.2,0.2,0.3,0.3l2.3,1.3c0.1,0.1,0.3,0.1,0.4,0.1c0.1,0,0.3,0,0.4-0.1l2.3-1.3c0.1-0.1,0.2-0.2,0.3-0.3
		C17.3,17.5,17.3,17.3,17.3,17.2L17.3,17.2z M17.3,17.2"/>
	<path fill="#08A835" d="M24.9,17.2v-2.7c0-0.1,0-0.3-0.1-0.4c-0.1-0.1-0.2-0.2-0.3-0.3l-2.3-1.3c-0.1-0.1-0.3-0.1-0.4-0.1
		c-0.1,0-0.3,0-0.4,0.1L19,13.7c-0.1,0.1-0.2,0.2-0.3,0.3c-0.1,0.1-0.1,0.3-0.1,0.4v2.7c0,0.1,0,0.3,0.1,0.4
		c0.1,0.1,0.2,0.2,0.3,0.3l2.3,1.3c0.1,0.1,0.3,0.1,0.4,0.1c0.1,0,0.3,0,0.4-0.1l2.3-1.3c0.1-0.1,0.2-0.2,0.3-0.3
		C24.8,17.5,24.9,17.3,24.9,17.2L24.9,17.2z M24.9,17.2"/>
	<path fill="#08A835" d="M13.5,23.8v-2.7c0-0.1,0-0.3-0.1-0.4c-0.1-0.1-0.2-0.2-0.3-0.3L10.8,19c-0.1-0.1-0.3-0.1-0.4-0.1
		c-0.1,0-0.3,0-0.4,0.1l-2.3,1.3c-0.1,0.1-0.2,0.2-0.3,0.3c-0.1,0.1-0.1,0.3-0.1,0.4v2.7c0,0.1,0,0.3,0.1,0.4
		c0.1,0.1,0.2,0.2,0.3,0.3l2.3,1.3c0.1,0.1,0.3,0.1,0.4,0.1c0.1,0,0.3,0,0.4-0.1l2.3-1.3c0.1-0.1,0.2-0.2,0.3-0.3
		C13.5,24.1,13.5,23.9,13.5,23.8L13.5,23.8z M13.5,23.8"/>
	<path fill="#FFFFFF" d="M21.1,10.6V7.9c0-0.1,0-0.3-0.1-0.4c-0.1-0.1-0.2-0.2-0.3-0.3l-2.3-1.3c-0.1-0.1-0.3-0.1-0.4-0.1
		c-0.1,0-0.3,0-0.4,0.1l-2.3,1.3c-0.1,0.1-0.2,0.2-0.3,0.3c-0.1,0.1-0.1,0.3-0.1,0.4v2.7c0,0.1,0,0.3,0.1,0.4
		c0.1,0.1,0.2,0.2,0.3,0.3l2.3,1.3c0.1,0.1,0.3,0.1,0.4,0.1c0.1,0,0.3,0,0.4-0.1l2.3-1.3c0.1-0.1,0.2-0.2,0.3-0.3
		C21.1,10.9,21.1,10.7,21.1,10.6L21.1,10.6z M21.1,10.6"/>
</g>
</svg>
