<svg width="137" height="32" viewBox="0 0 137 32" fill="none" xmlns="http://www.w3.org/2000/svg">
<g clip-path="url(#clip0)">
<path d="M55.8076 6.43657V3.03278H46.5514H44.3101H42.8518V25.5825H46.5514V16.2301H54.9344V12.8263H46.5514V6.43657H55.8076Z" fill="black"/>
<path d="M91.2961 15.7772V25.5825H94.789V14.8744C94.789 12.388 93.5315 7.80971 88.2049 7.80971C84.0425 7.80971 82.4416 10.3867 82.4416 10.3867L82.1782 8.13402H79.0797V25.5825H82.6192V16.6946C82.6192 12.8087 84.6276 10.9768 87.3316 10.9768C90.5451 10.9768 91.2961 13.5947 91.2961 15.7772Z" fill="black"/>
<path d="M129.428 24.0807L136.562 8.10192H132.921L127.731 20.3263L122.201 8.10192H118.365L125.874 24.2707C125.711 24.6622 124.71 27.0054 123.973 27.7592C123.33 28.399 122.442 28.6539 121.379 28.6539L121.895 31.6772C122.673 31.7019 123.447 31.5663 124.171 31.2789C124.894 30.9914 125.551 30.5582 126.101 30.006C127.74 28.3406 129.091 24.8345 129.091 24.8345L129.382 24.1888H129.478L129.428 24.0807Z" fill="black"/>
<path d="M67.3506 7.84479H66.4104C64.1084 7.84479 61.9006 8.76271 60.2729 10.3966C58.6451 12.0305 57.7306 14.2466 57.7306 16.5573V17.2205C57.7314 19.5307 58.6462 21.7461 60.2739 23.3794C61.9016 25.0126 64.1089 25.9302 66.4104 25.9302H67.3506C69.6522 25.9302 71.8595 25.0126 73.4872 23.3794C75.1149 21.7461 76.0297 19.5307 76.0305 17.2205V16.5573C76.0305 14.2466 75.116 12.0305 73.4882 10.3966C71.8604 8.76271 69.6527 7.84479 67.3506 7.84479ZM72.5114 17.1066C72.5114 18.5789 71.9287 19.9909 70.8916 21.0319C69.8544 22.073 68.4477 22.6578 66.981 22.6578H66.8005C65.3337 22.6578 63.927 22.073 62.8899 21.0319C61.8527 19.9909 61.2701 18.5789 61.2701 17.1066V16.6683C61.2701 15.1961 61.8527 13.7841 62.8899 12.743C63.927 11.702 65.3337 11.1171 66.8005 11.1171H66.9635C68.4302 11.1171 69.8369 11.702 70.8741 12.743C71.9112 13.7841 72.4939 15.1961 72.4939 16.6683L72.5114 17.1066Z" fill="black"/>
<path d="M112.436 1.91374V9.74684C110.901 8.51408 108.993 7.84319 107.028 7.84481H106.507C104.205 7.84558 101.997 8.76375 100.37 10.3975C98.7422 12.0313 97.8275 14.2469 97.8267 16.5573V17.2206C97.8275 19.5308 98.7423 21.7461 100.37 23.3794C101.998 25.0127 104.205 25.9302 106.507 25.9302H107.028C109.212 25.9334 111.317 25.1067 112.919 23.6162L113.206 25.5474H115.999V1.91374H112.436ZM112.61 17.1066C112.61 18.5789 112.028 19.9909 110.991 21.0319C109.953 22.073 108.547 22.6579 107.08 22.6579H106.9C105.433 22.6579 104.026 22.073 102.989 21.0319C101.952 19.9909 101.369 18.5789 101.369 17.1066V16.6684C101.369 15.1961 101.952 13.7841 102.989 12.743C104.026 11.702 105.433 11.1171 106.9 11.1171H107.08C108.547 11.1171 109.953 11.702 110.991 12.743C112.028 13.7841 112.61 15.1961 112.61 16.6684V17.1066Z" fill="black"/>
<path d="M19.1884 25.3629V21.6523C19.1882 21.4474 19.1343 21.2461 19.0321 21.0687C18.9299 20.8912 18.783 20.7439 18.6062 20.6414L15.4044 18.7861C15.2274 18.6836 15.0266 18.6296 14.8222 18.6296C14.6179 18.6296 14.4171 18.6836 14.2401 18.7861L11.0383 20.6414C10.8614 20.7439 10.7146 20.8912 10.6124 21.0687C10.5102 21.2461 10.4563 21.4474 10.4561 21.6523V25.3629C10.4558 25.5683 10.5095 25.7702 10.6117 25.9482C10.7139 26.1262 10.861 26.274 11.0383 26.3767L14.2401 28.232C14.4171 28.3346 14.6179 28.3886 14.8222 28.3886C15.0266 28.3886 15.2274 28.3346 15.4044 28.232L18.6062 26.3767C18.7835 26.274 18.9306 26.1262 19.0328 25.9482C19.135 25.7702 19.1887 25.5683 19.1884 25.3629Z" fill="#08A835"/>
<path d="M29.6462 25.3629V21.6523C29.646 21.4474 29.5921 21.2461 29.4899 21.0687C29.3877 20.8912 29.2408 20.7439 29.064 20.6414L25.8622 18.7861C25.6852 18.6836 25.4844 18.6296 25.28 18.6296C25.0757 18.6296 24.8749 18.6836 24.6979 18.7861L21.4961 20.6414C21.3192 20.7439 21.1724 20.8912 21.0702 21.0687C20.968 21.2461 20.9141 21.4474 20.9139 21.6523V25.3629C20.9136 25.5683 20.9673 25.7702 21.0695 25.9482C21.1717 26.1262 21.3188 26.274 21.4961 26.3767L24.6979 28.232C24.8749 28.3346 25.0757 28.3886 25.28 28.3886C25.4844 28.3886 25.6852 28.3346 25.8622 28.232L29.064 26.3767C29.2413 26.274 29.3884 26.1262 29.4906 25.9482C29.5928 25.7702 29.6465 25.5683 29.6462 25.3629Z" fill="#08A835"/>
<path d="M13.9718 16.2676V12.557C13.9726 12.3511 13.9192 12.1486 13.817 11.97C13.7148 11.7915 13.5673 11.6432 13.3897 11.5403L10.1878 9.69081C10.0108 9.58824 9.81007 9.53424 9.60569 9.53424C9.40131 9.53424 9.20053 9.58824 9.02354 9.69081L5.82171 11.5403C5.64489 11.6427 5.49803 11.7901 5.39585 11.9675C5.29367 12.1449 5.23977 12.3462 5.23956 12.5512V16.2617C5.23926 16.4672 5.29292 16.6691 5.39512 16.847C5.49732 17.025 5.64447 17.1728 5.82171 17.2756L9.02354 19.1367C9.20053 19.2393 9.40131 19.2933 9.60569 19.2933C9.81007 19.2933 10.0108 19.2393 10.1878 19.1367L13.3897 17.2814C13.5669 17.1787 13.7141 17.0309 13.8163 16.8529C13.9185 16.6749 13.9721 16.473 13.9718 16.2676Z" fill="#08A835"/>
<path d="M24.4186 16.2676V12.557C24.4184 12.3521 24.3645 12.1508 24.2623 11.9733C24.1601 11.7959 24.0133 11.6486 23.8364 11.5461L20.6346 9.69081C20.4576 9.58824 20.2568 9.53424 20.0525 9.53424C19.8481 9.53424 19.6473 9.58824 19.4703 9.69081L16.2685 11.5403C16.0917 11.6427 15.9448 11.7901 15.8426 11.9675C15.7404 12.1449 15.6866 12.3462 15.6863 12.5512V16.2617C15.686 16.4672 15.7397 16.6691 15.8419 16.8471C15.9441 17.025 16.0912 17.1728 16.2685 17.2756L19.4703 19.1309C19.6473 19.2334 19.8481 19.2874 20.0525 19.2874C20.2568 19.2874 20.4576 19.2334 20.6346 19.1309L23.8364 17.2756C24.0128 17.1733 24.1594 17.0265 24.2616 16.8496C24.3637 16.6727 24.4179 16.472 24.4186 16.2676Z" fill="#08A835"/>
<path d="M8.73225 25.3629V21.6523C8.73204 21.4474 8.67814 21.2461 8.57597 21.0687C8.47379 20.8912 8.32692 20.7439 8.1501 20.6414L4.94828 18.7861C4.77128 18.6836 4.5705 18.6296 4.36613 18.6296C4.16175 18.6296 3.96097 18.6836 3.78398 18.7861L0.582151 20.6414C0.40533 20.7439 0.258464 20.8912 0.156286 21.0687C0.0541079 21.2461 0.000210689 21.4474 1.26513e-06 21.6523V25.3629C-0.00030041 25.5683 0.0533545 25.7702 0.155558 25.9482C0.257762 26.1262 0.404903 26.274 0.582151 26.3767L3.78398 28.232C3.96097 28.3346 4.16175 28.3886 4.36613 28.3886C4.5705 28.3886 4.77128 28.3346 4.94828 28.232L8.1501 26.3767C8.32735 26.274 8.47449 26.1262 8.57669 25.9482C8.6789 25.7702 8.73255 25.5683 8.73225 25.3629V25.3629Z" fill="#08A835"/>
<path d="M19.1884 7.17232V3.46175C19.1882 3.25681 19.1343 3.05552 19.0321 2.87809C18.9299 2.70066 18.783 2.55331 18.6062 2.45084L15.4044 0.595558C15.2274 0.492984 15.0266 0.438984 14.8222 0.438984C14.6179 0.438984 14.4171 0.492984 14.2401 0.595558L11.0383 2.45084C10.8614 2.55331 10.7146 2.70066 10.6124 2.87809C10.5102 3.05552 10.4563 3.25681 10.4561 3.46175V7.17232C10.4558 7.37776 10.5095 7.57965 10.6117 7.75764C10.7139 7.93563 10.861 8.08344 11.0383 8.18616L14.2401 10.0414C14.4171 10.144 14.6179 10.198 14.8222 10.198C15.0266 10.198 15.2274 10.144 15.4044 10.0414L18.6062 8.18616C18.7835 8.08344 18.9306 7.93563 19.0328 7.75764C19.135 7.57965 19.1887 7.37776 19.1884 7.17232Z" fill="black"/>
</g>
<defs>
<clipPath id="clip0">
<rect width="137" height="31.9521" fill="white"/>
</clipPath>
</defs>
</svg>
