<svg width="110" height="35" fill="none" xmlns="http://www.w3.org/2000/svg" xmlns:xlink="http://www.w3.org/1999/xlink"><path d="M10.695 5.12H3.68v4.83h5.75v1.61H3.68V18H1.84V3.51h8.855v1.61zM21.39 18l-3.45-5.98h-2.76V18h-1.84V3.51h5.405c1.196 0 2.223.422 3.082 1.265s1.288 1.84 1.288 2.99c0 .629-.115 1.204-.345 1.725-.215.506-.475.905-.782 1.196a6.627 6.627 0 01-.943.713c-.307.2-.575.33-.805.391l-.322.115L23.46 18h-2.07zM15.18 5.12v5.29h3.565c.69 0 1.28-.253 1.771-.759a2.61 2.61 0 00.759-1.886c0-.736-.253-1.357-.759-1.863-.49-.521-1.081-.782-1.771-.782H15.18zm12.758 11.27h7.59V18h-9.43V3.51h9.2v1.61h-7.36v4.6h6.785v1.61h-6.785v5.06zm12.42 0h7.59V18h-9.43V3.51h9.2v1.61h-7.36v4.6h6.786v1.61h-6.785v5.06z" fill="#FA5745"></path><path d="M52.78 3.51V18h-1.84V3.51h1.84zM58.875 18l-6.095-7.36 5.635-7.13H60.6l-5.75 7.13L61.06 18h-2.185zm12.757 0l-1.38-3.565h-5.98L62.892 18h-1.956l5.52-14.49h1.61L73.587 18h-1.954zm-4.37-11.5l-2.415 6.325h4.83L67.26 6.5zm7.355.805c0-1.012.452-1.917 1.357-2.714.905-.797 2.024-1.196 3.358-1.196 1.257 0 2.315.43 3.174 1.288.874.843 1.311 1.87 1.311 3.082h-1.84c0-.797-.253-1.457-.759-1.978-.506-.521-1.135-.782-1.886-.782-.828 0-1.518.238-2.07.713-.537.46-.805.989-.805 1.587 0 .644.26 1.165.782 1.564.537.399 1.18.713 1.932.943.751.215 1.503.46 2.254.736.767.276 1.41.72 1.932 1.334.537.598.805 1.372.805 2.323 0 1.073-.445 1.993-1.334 2.76-.89.767-2.055 1.15-3.496 1.15-1.472 0-2.645-.406-3.519-1.219-.874-.813-1.311-1.863-1.311-3.151h1.84c0 .874.253 1.556.759 2.047.521.475 1.265.713 2.231.713.935 0 1.664-.215 2.185-.644.537-.445.805-.997.805-1.656 0-.644-.268-1.165-.805-1.564-.521-.399-1.158-.705-1.909-.92-.751-.23-1.51-.483-2.277-.759a4.769 4.769 0 01-1.932-1.311c-.521-.613-.782-1.395-.782-2.346zm11.388 0c0-1.012.452-1.917 1.357-2.714.904-.797 2.024-1.196 3.358-1.196 1.257 0 2.315.43 3.174 1.288.874.843 1.31 1.87 1.31 3.082h-1.84c0-.797-.252-1.457-.758-1.978-.506-.521-1.135-.782-1.886-.782-.828 0-1.518.238-2.07.713-.537.46-.805.989-.805 1.587 0 .644.26 1.165.782 1.564.536.399 1.18.713 1.932.943.751.215 1.502.46 2.254.736.766.276 1.41.72 1.932 1.334.536.598.805 1.372.805 2.323 0 1.073-.445 1.993-1.334 2.76-.89.767-2.055 1.15-3.496 1.15-1.472 0-2.645-.406-3.52-1.219-.873-.813-1.31-1.863-1.31-3.151h1.84c0 .874.253 1.556.759 2.047.521.475 1.265.713 2.23.713.936 0 1.664-.215 2.186-.644.536-.445.805-.997.805-1.656 0-.644-.269-1.165-.805-1.564-.522-.399-1.158-.705-1.91-.92-.75-.23-1.51-.483-2.276-.759a4.769 4.769 0 01-1.932-1.311c-.522-.613-.782-1.395-.782-2.346zM107.052 18l-1.38-3.565h-5.98L98.312 18h-1.955l5.52-14.49h1.61l5.52 14.49h-1.955zm-4.37-11.5l-2.415 6.325h4.83L102.682 6.5z" fill="#232323"></path><path d="M2.394 25.24c-.383.42-.574.957-.574 1.61 0 .653.191 1.19.574 1.61.383.42.845.63 1.386.63.541 0 1.003-.21 1.386-.63.383-.42.574-.957.574-1.61 0-.653-.191-1.19-.574-1.61-.383-.42-.845-.63-1.386-.63-.541 0-1.003.21-1.386.63zM1.68 23.7l.28.7c.047-.056.117-.126.21-.21.093-.084.303-.196.63-.336.327-.15.677-.224 1.05-.224.821 0 1.517.303 2.086.91.57.607.854 1.377.854 2.31s-.285 1.703-.854 2.31c-.57.607-1.265.91-2.086.91-.373 0-.719-.07-1.036-.21-.308-.14-.527-.28-.658-.42l-.196-.21v3.01H.91V23.7h.77zm8.883-.07c.691 0 1.26.21 1.708.63.448.42.672.933.672 1.54V30h-.77l-.28-.7a2.175 2.175 0 01-.21.21c-.093.084-.303.2-.63.35-.326.14-.676.21-1.05.21-.616 0-1.12-.182-1.512-.546a1.762 1.762 0 01-.588-1.344c0-.653.294-1.153.882-1.498.588-.355 1.624-.532 3.108-.532v-.35c0-.317-.13-.593-.392-.826a1.3 1.3 0 00-.938-.364c-.69 0-1.11.303-1.26.91h-1.12c.075-.55.322-1.003.742-1.358.42-.355.966-.532 1.638-.532zm-.56 5.46c.532 0 .98-.15 1.344-.448.364-.308.546-.649.546-1.022v-.49c-1.176 0-1.96.089-2.352.266-.392.177-.588.462-.588.854 0 .224.098.42.294.588.196.168.448.252.756.252zm6.368.77l-2.45-6.16h1.12l1.89 4.83 1.89-4.83h1.12l-2.73 6.86c-.252.635-.518 1.083-.798 1.344-.27.27-.611.406-1.022.406l-.42-.07v-.84c.299 0 .528-.065.686-.196.168-.13.313-.345.434-.644l.28-.7zm10.853-6.23c.579 0 1.073.238 1.484.714.41.476.616 1.101.616 1.876V30h-1.05v-3.78c0-.504-.121-.896-.364-1.176a1.1 1.1 0 00-.896-.434c-.364 0-.677.15-.938.448-.261.299-.392.686-.392 1.162V30h-1.05v-3.78c0-.504-.121-.896-.364-1.176a1.1 1.1 0 00-.896-.434c-.355 0-.667.154-.938.462-.261.308-.392.69-.392 1.148V30h-1.05v-6.3h.77l.28.7a.625.625 0 01.056-.084c.028-.037.089-.098.182-.182a1.51 1.51 0 01.308-.238c.112-.065.257-.126.434-.182.177-.056.364-.084.56-.084.373 0 .705.093.994.28.29.187.49.373.602.56l.154.28c.019-.028.042-.065.07-.112.028-.056.098-.15.21-.28.112-.13.233-.243.364-.336a2.02 2.02 0 01.532-.266c.224-.084.462-.126.714-.126zm7.836 4.69h1.12c-.233.504-.57.924-1.008 1.26-.438.327-.966.49-1.582.49-.821 0-1.517-.303-2.086-.91-.57-.607-.854-1.377-.854-2.31 0-.924.28-1.69.84-2.296.57-.616 1.246-.924 2.03-.924.784 0 1.447.294 1.988.882.541.588.812 1.344.812 2.268l-.07.56h-4.48c.038.457.238.863.602 1.218s.77.532 1.218.532c.597 0 1.087-.257 1.47-.77zm-1.54-3.71c-.42 0-.803.173-1.148.518-.336.345-.537.78-.602 1.302h3.43c-.065-.55-.257-.99-.574-1.316-.308-.336-.676-.504-1.106-.504zm7.065-.98c.681 0 1.26.257 1.736.77s.714 1.167.714 1.96V30h-1.05v-3.64c0-.513-.15-.933-.448-1.26a1.424 1.424 0 00-1.092-.49c-.495 0-.901.163-1.218.49-.308.317-.462.737-.462 1.26V30h-1.05v-6.3h.77l.28.7c.046-.056.116-.126.21-.21.093-.084.294-.196.602-.336.317-.15.653-.224 1.008-.224zm4.828-.7v-.91h.91v1.68h1.4v.98h-1.4v3.29c0 .345.093.62.28.826.196.196.453.294.77.294l.35-.07v.91c-.14.093-.35.14-.63.14-.504 0-.933-.196-1.288-.588-.355-.392-.532-.896-.532-1.512v-3.29h-1.12v-.98h.49c.513 0 .77-.257.77-.77zm10.992 5.25c0 .541-.2.994-.602 1.358-.392.355-.914.532-1.568.532-.681 0-1.227-.182-1.638-.546-.41-.364-.634-.835-.672-1.414h1.05c.038.29.164.527.378.714.215.177.509.266.882.266.336 0 .607-.089.812-.266a.821.821 0 00.308-.644.627.627 0 00-.336-.574c-.224-.14-.5-.243-.826-.308-.317-.075-.64-.159-.966-.252a1.672 1.672 0 01-.826-.532c-.224-.27-.336-.625-.336-1.064 0-.504.196-.933.588-1.288.392-.355.896-.532 1.512-.532.654 0 1.167.173 1.54.518.383.345.593.803.63 1.372h-1.05c-.074-.607-.448-.91-1.12-.91-.298 0-.55.084-.756.252-.196.168-.294.364-.294.588 0 .252.112.448.336.588.224.13.495.233.812.308.327.065.654.145.98.238.327.093.602.275.826.546.224.261.336.611.336 1.05zm3.074 1.68l-2.45-6.16h1.12l1.89 4.83 1.89-4.83h1.12l-2.73 6.86c-.252.635-.518 1.083-.798 1.344-.271.27-.612.406-1.022.406l-.42-.07v-.84c.298 0 .527-.065.686-.196.168-.13.312-.345.434-.644l.28-.7zm8.752-1.68c0 .541-.2.994-.602 1.358-.392.355-.914.532-1.568.532-.68 0-1.227-.182-1.638-.546-.41-.364-.634-.835-.672-1.414h1.05a1.1 1.1 0 00.378.714c.215.177.51.266.882.266.336 0 .607-.089.812-.266a.822.822 0 00.308-.644.627.627 0 00-.336-.574c-.224-.14-.499-.243-.826-.308-.317-.075-.639-.159-.966-.252a1.671 1.671 0 01-.826-.532c-.224-.27-.336-.625-.336-1.064 0-.504.196-.933.588-1.288.392-.355.896-.532 1.512-.532.654 0 1.167.173 1.54.518.383.345.593.803.63 1.372h-1.05c-.074-.607-.448-.91-1.12-.91-.298 0-.55.084-.756.252-.196.168-.294.364-.294.588 0 .252.112.448.336.588.224.13.495.233.812.308.327.065.654.145.98.238.327.093.602.275.826.546.224.261.336.611.336 1.05zm2.024-5.25v-.91h.91v1.68h1.4v.98h-1.4v3.29c0 .345.093.62.28.826.196.196.453.294.77.294l.35-.07v.91c-.14.093-.35.14-.63.14-.504 0-.934-.196-1.288-.588-.355-.392-.532-.896-.532-1.512v-3.29h-1.12v-.98h.49c.513 0 .77-.257.77-.77zm7.708 5.39h1.12a3.32 3.32 0 01-1.008 1.26c-.44.327-.966.49-1.582.49-.822 0-1.517-.303-2.087-.91-.569-.607-.854-1.377-.854-2.31 0-.924.28-1.69.84-2.296.57-.616 1.246-.924 2.03-.924.785 0 1.447.294 1.989.882.54.588.811 1.344.811 2.268l-.07.56h-4.48c.038.457.239.863.603 1.218.363.355.77.532 1.218.532.597 0 1.087-.257 1.47-.77zm-1.54-3.71c-.42 0-.803.173-1.148.518-.337.345-.537.78-.603 1.302h3.43c-.065-.55-.256-.99-.574-1.316-.308-.336-.676-.504-1.106-.504zm10.424-.98c.579 0 1.073.238 1.484.714.41.476.616 1.101.616 1.876V30h-1.05v-3.78c0-.504-.121-.896-.364-1.176a1.1 1.1 0 00-.896-.434c-.364 0-.677.15-.938.448-.261.299-.392.686-.392 1.162V30h-1.05v-3.78c0-.504-.121-.896-.364-1.176a1.1 1.1 0 00-.896-.434c-.355 0-.667.154-.938.462-.261.308-.392.69-.392 1.148V30h-1.05v-6.3h.77l.28.7a.635.635 0 01.056-.084c.028-.037.089-.098.182-.182.093-.093.196-.173.308-.238.112-.065.257-.126.434-.182.177-.056.364-.084.56-.084.373 0 .705.093.994.28.29.187.49.373.602.56l.154.28c.019-.028.042-.065.07-.112.028-.056.098-.15.21-.28.112-.13.233-.243.364-.336a2.02 2.02 0 01.532-.266c.224-.084.462-.126.714-.126z" fill="#888"></path></svg>