<svg width="239" height="50" viewBox="0 0 239 50" fill="none" xmlns="http://www.w3.org/2000/svg">
<path d="M45.4114 0C31.4873 0 20.4114 11.2342 20.4114 25C20.4114 38.924 31.6456 50 45.4114 50C59.1772 50 70.4114 38.7658 70.4114 25C70.5696 11.2342 59.1772 0 45.4114 0ZM45.4114 34.3354C40.3481 34.3354 36.0759 30.0633 36.0759 25C36.0759 19.9367 40.3481 15.6646 45.4114 15.6646C50.4747 15.6646 54.7468 19.9367 54.7468 25C54.7468 30.0633 50.6329 34.3354 45.4114 34.3354Z" fill="#8B3FFD"/>
<path d="M20.4114 7.27869V43.6711H11.3924L0 7.27869H20.4114V7.27869Z" fill="#8B3FFD"/>
<path d="M231.329 13.7659L225.791 27.3735C225.633 27.5317 225.633 27.8481 225.633 28.0064L225.474 28.3228L225.316 28.0064C225.316 27.8481 225.158 27.5317 225.158 27.3735L219.62 13.7659H212.5L221.835 37.0254L217.88 45.8861H225L238.133 13.7659H231.329V13.7659Z" fill="black"/>
<path d="M178.797 15.0317C177.531 14.0823 175.949 13.4494 174.05 13.2912C170.886 12.9747 167.88 14.0823 165.823 16.1393V13.6077H159.335V36.8672H165.823V24.6836C165.823 21.9937 166.297 21.2026 166.772 20.5697C167.563 19.3039 168.987 18.671 170.728 18.671C172.468 18.671 174.05 19.4621 174.842 20.7279C175.316 21.6773 175.474 22.9431 175.474 23.576C175.474 25.633 175.474 36.8672 175.474 36.8672H181.962V22.7849C181.962 19.1456 180.854 16.614 178.797 15.0317Z" fill="black"/>
<path d="M146.993 13.9241C143.829 12.8165 140.348 12.9748 137.183 14.3988C135.126 15.3482 133.228 16.9304 132.12 18.9874C131.012 20.7279 130.538 22.9431 130.538 25.3165C130.538 27.6899 131.012 29.9051 132.12 31.6456C133.228 33.3861 134.652 34.9684 136.55 35.9178C138.449 36.8672 140.664 37.5001 142.721 37.5001C143.829 37.5001 144.936 37.3418 146.044 37.0254C146.993 36.7089 147.943 36.3925 148.892 35.9178C150.791 34.8102 152.373 33.3861 153.323 31.6456C154.43 29.9051 154.905 27.6899 154.905 25.3165C155.063 20.095 152.057 15.6646 146.993 13.9241ZM148.892 25.633C148.734 27.6899 148.101 29.4304 146.835 30.538C145.886 31.3292 144.462 31.8039 142.721 31.9621C140.981 31.9621 139.715 31.4874 138.607 30.538C137.342 29.4304 136.709 27.6899 136.55 25.633C136.392 23.2596 137.342 21.3608 139.082 20.095C140.031 19.4621 141.297 18.9874 142.563 18.9874C143.987 18.9874 145.095 19.4621 146.202 20.095C148.101 21.2026 149.05 23.2596 148.892 25.633Z" fill="black"/>
<path d="M123.101 15.0316C121.835 14.0823 120.253 13.4494 118.354 13.2911C118.038 13.2911 117.563 13.2911 117.247 13.2911C114.715 13.2911 112.5 14.3987 110.601 16.6139L110.285 17.0886H109.652C109.177 16.2975 108.544 15.6646 107.911 15.1899C106.645 14.2405 105.063 13.6076 103.164 13.4494C100.158 13.1329 97.7847 14.0823 95.7277 16.2975V13.9241H89.2404V37.1835H95.7277V25V24.6835C95.7277 22.1519 96.0442 21.519 96.5188 20.7279C97.31 19.462 98.734 18.6709 100.316 18.8291C101.899 18.8291 103.323 19.6203 104.114 20.8861C104.747 21.8354 104.747 22.943 104.747 24.0506V37.0253H111.234V24.5253C111.234 22.1519 111.55 21.3608 112.025 20.5696C112.816 19.3038 114.24 18.6709 115.823 18.6709C117.405 18.6709 118.671 19.462 119.462 20.7279C119.937 21.519 120.095 22.4684 120.095 23.1013C120.095 23.4177 120.095 23.7342 120.095 23.8924V36.8671H126.582V22.6266C126.582 21.3608 126.424 20.0949 126.107 18.9873C125.475 17.4051 124.525 15.981 123.101 15.0316Z" fill="black"/>
<path d="M206.329 29.9052C205.38 30.8546 203.164 32.5951 200.158 32.7533C197.626 32.9115 195.728 32.1204 194.304 30.6964C193.671 30.0634 193.196 29.1141 192.88 28.1647H210.759V28.0065C210.918 27.0571 211.076 26.266 211.076 25.3166C211.076 24.5255 210.918 23.4179 210.601 21.9938C209.81 19.3039 208.228 17.247 206.171 15.6647C203.797 13.9242 201.582 13.4495 200.949 13.4495C196.361 12.6584 191.139 14.7153 188.449 18.9875C186.55 21.9938 186.709 25.0001 186.709 25.9495C186.709 27.0571 186.867 30.5381 189.715 33.7027C193.038 37.3419 197.626 37.5001 199.05 37.6584C205.38 37.8166 209.652 33.8609 210.601 33.0698L206.329 29.9052ZM195.253 20.0951C196.202 19.4622 197.31 18.9875 198.734 18.9875C200.158 18.9875 201.266 19.4622 202.373 20.0951C203.323 20.8862 204.114 21.8356 204.588 22.9432H193.196C193.354 21.8356 194.145 20.728 195.253 20.0951Z" fill="black"/>
</svg>
