<svg width="44" height="18" fill="none" xmlns="http://www.w3.org/2000/svg"><path fill-rule="evenodd" clip-rule="evenodd" d="M36.422 1.2H26.4c.54 3.558 3.772 6.887 7.328 6.887h7.974c.107-.344.107-.804.107-1.148 0-3.214-2.37-5.739-5.387-5.739z" fill="url(#paint0_linear_1540_1371)"/><path d="M27.5 17.282V8.68h14.018c-.416 1.498-1.421 2.752-2.72 3.441l4.313 5.16h-5.71l-3.169-4.587H32.28v4.588H27.5z" fill="#4DB45F"/><path fill-rule="evenodd" clip-rule="evenodd" d="M20.474 1.2v16.07h5.046V1.2h-5.046zM0 17.27V1.2h4.849s1.4 0 2.155 2.296c1.94 6.083 2.155 6.887 2.155 6.887s.431-1.493 2.155-6.887C12.07 1.2 13.47 1.2 13.47 1.2h4.85v16.07h-4.85V8.66h-.538l-2.694 8.61H8.082L5.388 8.66h-.539v8.61H0z" fill="#4DB45F"/><defs><linearGradient id="paint0_linear_1540_1371" x1="26.373" y1="4.643" x2="41.809" y2="4.643" gradientUnits="userSpaceOnUse"><stop stop-color="#00B4E6"/><stop offset="1" stop-color="#088CCB"/></linearGradient></defs></svg>