<svg width="152" height="40" viewBox="0 0 152 40" fill="none" xmlns="http://www.w3.org/2000/svg">
<g clip-path="url(#clip0_8_36)">
<rect width="40" height="40" rx="20" fill="#1E7F94"/>
<path d="M14.0753 21.2248C14.0753 20.9157 14.0753 20.6066 14.0753 20.2976C14.0753 20.1298 14.0899 19.8939 14.0011 19.7495C13.9045 19.5925 13.9585 19.2577 13.9722 19.0943C14.0035 18.7222 14.0753 18.3609 14.0753 17.9858C14.0753 17.96 14.0837 17.565 13.9825 17.7447C13.818 18.0373 13.801 18.4625 13.7023 18.7832C13.5171 19.3853 13.4077 19.9219 13.4077 20.5489C13.4077 20.7989 13.4077 21.0489 13.4077 21.2989C13.4077 21.3625 13.4448 21.396 13.4448 21.3134C13.4448 21.0551 13.4548 20.7956 13.4262 20.5386C13.3459 19.8152 13.3503 19.0187 13.5396 18.3134C13.6367 17.9514 13.7312 17.5576 13.8816 17.2193C13.9561 17.0517 13.9907 16.8058 14.0382 16.626C14.1139 16.3389 14.1683 15.8324 14.3926 15.6081C14.5317 15.469 14.9559 15.365 15.1508 15.365" stroke="#F0CAAB" stroke-linecap="round"/>
<path d="M15.225 14.2524C15.2233 14.3224 15.1137 14.7467 15.1137 14.4831C15.1137 14.3119 15.0956 14.2789 15.2435 14.1967C15.3589 14.1327 15.5088 14.0805 15.6494 14.1061C15.9475 14.1603 15.5044 15.0479 15.5959 15.1631C15.6468 15.2272 15.6913 15.0298 15.736 14.9611C15.8328 14.8124 15.8538 14.7913 15.9873 14.6768C16.1999 14.4946 16.4067 14.3226 16.6013 14.1205C16.7529 13.9631 16.9161 13.8333 16.8033 14.17C16.6879 14.5143 16.4994 14.8354 16.3376 15.1589C16.1999 15.4343 16.1869 15.3583 16.3088 15.2166C16.4953 14.9997 16.7476 14.7992 16.9763 14.6315C16.9936 14.6188 17.2304 14.4285 17.3225 14.4831C17.4532 14.5607 17.3123 14.956 17.2916 15.0333C17.2029 15.3647 17.119 15.7081 17.0011 16.0305C16.9767 16.0971 17.0557 15.8128 17.067 15.7853C17.1401 15.6068 17.2271 15.4318 17.3184 15.262C17.3249 15.2498 17.5285 14.9724 17.5285 15.0188C17.5285 15.0512 15.9517 15.3938 16.1542 15.6637C16.402 15.9941 15.9415 16.0508 15.6494 16.1026C15.2688 16.1701 14.9047 16.1425 14.6584 15.8142C14.592 15.7257 14.5628 15.5095 14.5574 15.6988C14.5415 16.2557 14.3977 16.7959 14.3164 17.3471C14.2791 17.5997 14.2445 17.8532 14.2051 18.1053C14.1766 18.2875 14.1147 18.3129 14.203 18.1218C14.4328 17.625 14.8518 17.1043 15.2621 16.7372C15.3365 16.6707 15.3267 16.8526 15.328 16.8773C15.3488 17.2773 15.3363 17.6802 15.3363 18.0806C15.3363 18.2039 15.2926 18.4446 15.361 18.2083C15.4258 17.9843 15.5187 17.7538 15.6041 17.5408C15.7924 17.0714 15.9568 16.5056 16.2387 16.0799C16.2506 16.062 16.2933 16.0411 16.3005 16.0614C16.324 16.1274 16.3083 16.2015 16.3067 16.2716C16.3007 16.5271 16.2783 16.7071 16.2387 16.9639C16.1906 17.2755 16.1193 17.5832 16.0615 17.8931C16.0458 17.9773 15.9245 18.3537 15.9915 18.0476C16.0538 17.7627 16.1311 17.4771 16.2305 17.2029C16.2927 17.0311 16.2952 17.1185 16.2387 17.1905C15.9704 17.5324 15.5339 17.7233 15.192 17.9796C15.1158 18.0368 14.9185 18.3812 14.7985 18.3278C14.6976 18.283 14.7221 18.0922 14.6872 18.0085C14.6753 17.9799 14.6686 18.0682 14.6666 18.0991C14.655 18.2791 14.0248 22.8215 14 23C13.8926 23.7742 14.807 23.9341 13.5 23C15.6872 24.6918 14.6479 23.7097 14.6872 23.7753C14.7305 23.8473 14.659 20.59 14.6769 20.5325C14.9378 19.6961 15.3753 18.8928 15.5876 18.0435C15.6282 17.8813 15.6543 18.0591 15.6618 18.1342C15.7096 18.6125 15.6736 19.1273 15.5959 19.5991C15.5247 20.0312 15.3618 20.4932 15.3363 20.9281C15.327 21.0849 15.2992 20.7858 15.2992 20.7406C15.2992 20.1249 15.6658 19.4314 15.9503 18.9089C16.11 18.6155 16.2899 18.3376 16.5004 18.0785C16.6136 17.9391 16.5972 18.2602 16.5972 18.3031C16.5972 19.0886 16.5133 19.9203 16.6158 20.6994C16.6203 20.7336 16.6343 21.0116 16.6343 20.8477C16.6343 20.488 16.6604 20.1293 16.6796 19.7701C16.7476 18.4984 16.8979 17.2035 17.2071 15.9666C17.2124 15.9453 17.3134 15.5658 17.3554 15.674C17.4626 15.9496 17.376 16.4027 17.376 16.6919C17.376 17.1754 17.3737 17.6589 17.376 18.1424C17.3776 18.4549 17.3592 18.8227 17.4337 19.1314C17.5525 19.6236 17.7008 21.1369 17.6727 20.6314C17.6655 20.5004 17.4983 20.5114 17.4585 20.4088C17.441 20.3638 17.5182 20.2301 17.5326 20.1904C17.7927 19.4776 17.9594 18.7271 18.1137 17.9858C18.3524 16.8384 18.5258 15.6506 18.5258 14.477C18.5258 14.3467 18.5934 13.9991 18.3774 13.9928C18.0753 13.9839 18.0283 14.1492 17.9282 14.4543C17.7741 14.9243 17.6482 15.4198 17.5697 15.9089C17.5619 15.9574 17.5614 16.0201 17.6192 15.9728C17.7962 15.828 17.832 15.4998 17.9303 15.3032C17.9733 15.2171 18.1892 14.8345 18.192 15.1136C18.1939 15.311 18.1077 15.7303 18.2373 15.9048C18.3351 16.0365 18.499 15.7613 18.5505 15.7029C18.7277 15.502 19.683 14.7365 19.9515 14.6768C20.0204 14.6615 19.3984 15.3236 19.5642 15.3279C19.9662 15.3382 20.3572 15.2704 20.7654 15.297C21.0853 15.3179 21.3968 15.4392 21.7152 15.4392C21.8501 15.4392 21.9873 15.4316 22.1211 15.4495C22.9628 15.5617 23.807 15.739 24.6204 15.979C25.1512 16.1356 25.6749 16.3141 26.2028 16.4694C26.3809 16.5217 26.5939 16.7371 26.7385 16.8567C26.8562 16.9541 27.0486 17.0645 27.0166 17.2399C26.9654 17.5216 26.9038 17.9354 26.9899 18.2042C27.0015 18.2405 26.9758 18.1152 26.9404 18.1012C26.4571 17.9094 25.8361 18.0623 25.3251 18.0167C25.0354 17.9909 24.885 17.6961 24.6451 17.5325C24.3838 17.3544 24.1577 17.0887 23.9158 16.8876C23.2486 16.3333 22.4907 15.739 21.604 15.6246C21.0531 15.5535 20.5018 15.5205 19.9515 15.4392C19.5812 15.3844 19.1179 15.2482 18.738 15.2929C18.6721 15.3006 18.5783 15.3683 18.5484 15.4247C18.4824 15.5495 18.5004 15.7868 18.4845 15.9172C18.4353 16.3218 18.3585 16.7221 18.295 17.1246C18.2067 17.6836 18.1143 18.2483 17.8582 18.7605C17.8231 18.8307 17.794 18.8216 17.7758 18.9047C17.7203 19.1575 17.7098 19.4051 17.7098 19.663C17.7098 19.883 17.8244 20.0205 17.9179 20.2131C18.0061 20.3947 18.0939 20.5736 18.1734 20.7591C18.2487 20.9348 18.5433 20.9186 18.7029 20.9363C18.806 20.9477 18.908 20.9651 19.012 20.9651C19.1855 20.9651 19.0173 20.5106 19.012 20.483C18.905 19.9297 18.7577 19.3798 18.6741 18.8223C18.6696 18.7924 18.6707 18.7493 18.6762 18.7193C18.6847 18.6722 18.7256 18.5256 18.7256 18.5256C18.7109 18.555 18.6741 18.6965 18.6741 18.6142C18.6741 18.5044 18.5832 18.8176 18.5113 18.9006C18.4577 18.9625 18.4516 18.9937 18.4516 19.0737C18.4516 19.4175 18.3643 19.7558 18.2661 20.0854C18.1401 20.5087 18.0807 20.0112 18.0807 19.8525" stroke="#F0CAAB" stroke-linecap="round"/>
<path d="M19.1562 16.1809C19.1562 16.5301 19.1983 16.9105 19.148 17.2564C19.1321 17.3654 19.082 17.4466 19.082 17.5531C19.082 17.7163 19.0473 17.8729 19.0449 18.0353C19.0435 18.1377 19.0198 18.5151 19.1191 18.5833C19.5751 18.8968 19.9402 19.3519 20.378 19.7021C20.5642 19.8511 20.6761 20.0463 20.8045 20.2564C20.8575 20.343 20.9214 20.4066 20.7839 20.4459C20.5915 20.5009 20.3925 20.5507 20.2008 20.4645C20.0048 20.3763 20.1261 20.3066 20.2894 20.3573C20.4867 20.4186 20.7089 20.5488 20.8622 20.6911C20.9828 20.8031 21.0964 21.0045 21.1775 21.1485C21.265 21.3041 21.4255 21.2782 21.5751 21.336C21.7978 21.4221 21.9517 21.4388 22.1891 21.4473C22.4998 21.4584 22.6091 21.5268 22.8567 21.2701C23.2608 20.8511 22.7854 20.1201 22.56 19.733C22.3964 19.4521 22.1199 19.2396 21.8718 19.0366C21.6481 18.8536 21.4973 18.6194 21.3073 18.4082C21.0185 18.0874 20.6254 17.7044 20.6788 17.2235C20.6928 17.0981 20.804 17.0295 20.8787 16.9412C21.0142 16.781 21.0502 16.6883 21.2619 16.6177C21.4262 16.563 21.6171 16.7851 21.7441 16.8773C21.8231 16.9347 21.9953 17.0286 22.0408 17.1246C22.1255 17.3035 22.214 17.4365 22.3828 17.5531C22.7053 17.7759 23.0305 18.0722 23.3965 18.2186C23.5669 18.2868 23.6125 18.3885 23.7324 18.5483C23.7765 18.6071 23.8783 18.8309 23.994 18.7152C24.0831 18.6261 24.1849 18.4309 24.2371 18.3134C24.2854 18.2048 24.226 18.1445 24.1836 18.0353C24.1347 17.9096 24.1259 17.7806 24.1259 17.6479C24.1259 17.58 24.0299 17.5698 23.9961 17.4954C23.8867 17.2547 24.1477 17.3687 24.2763 17.4068C24.5133 17.4771 24.7396 17.5453 24.9789 17.5985C25.3837 17.6884 25.8211 17.5734 26.2213 17.6623C26.3767 17.6969 26.5366 17.7524 26.5366 17.9425C26.5366 18.1252 26.6057 18.1893 26.7591 18.266C26.9115 18.3422 26.8886 18.318 26.7962 18.4515C26.7279 18.55 26.6849 18.6278 26.6849 18.7482C26.6849 19.0493 26.6142 19.3453 26.6107 19.6465C26.6099 19.7153 26.6514 19.8923 26.5572 19.9185C26.4113 19.959 26.2409 19.9654 26.0915 19.9556C25.8947 19.9426 25.691 19.9319 25.4981 19.8896C25.4439 19.8777 25.2616 19.8135 25.2097 19.8608C25.1776 19.8899 25.2003 20.0472 25.2014 20.0833C25.2085 20.308 25.3306 20.4834 25.4651 20.6561C25.6156 20.8492 25.6933 20.9716 25.7598 21.2042C25.787 21.2993 26.1441 20.9501 26.1863 20.926C26.3471 20.8341 26.485 20.7055 26.6849 20.7055C26.8277 20.7055 26.8971 20.4662 26.9816 20.3718C27.0343 20.3129 27.075 20.2649 27.167 20.3058C27.2305 20.334 27.4343 20.3718 27.3648 20.3718C26.899 20.3718 26.4471 20.2883 25.9844 20.2626C25.6582 20.2444 25.3761 20.3932 25.0716 20.483C24.7977 20.5639 24.5109 20.7126 24.4246 21.0146C24.411 21.0625 24.3855 20.9202 24.3855 20.8704C24.3855 20.807 24.3496 20.6818 24.3093 20.5407C24.2755 20.4226 24.2742 20.623 24.2742 20.6499C24.2742 20.8331 24.2125 20.9989 24.1753 21.1794C24.0455 21.8099 23.6709 22.16 23.1699 22.5146C22.9641 22.6602 22.7873 22.792 22.6218 22.9802C22.456 23.1687 22.2738 23.1489 22.0408 23.1533C21.5438 23.1627 21.056 23.2646 20.5573 23.2646C20.2485 23.2646 20.0095 23.1716 19.7125 23.108C19.4948 23.0613 19.3578 22.8893 19.1562 22.8277C19.0195 22.786 18.9048 22.7009 18.7689 22.6547C18.6333 22.6086 18.4644 22.5818 18.3382 22.5187C18.2403 22.4697 18.2742 22.3629 18.2084 22.3065C18.1687 22.2724 18.0271 22.268 17.9797 22.2653C17.7684 22.2532 17.5462 22.338 17.3369 22.2962C17.1138 22.2515 17.2368 22.0175 17.1494 21.8738C17.0308 21.6789 16.9227 21.5503 16.7641 21.3917C16.6959 21.3235 16.592 21.1176 16.4695 21.1526C16.3802 21.1781 16.4769 21.7553 16.4839 21.8285C16.5137 22.1413 16.6528 22.7569 16.2222 22.8566C15.939 22.9222 15.6268 22.8937 15.3362 22.8937C15.2593 22.8937 15.1824 22.8937 15.1055 22.8937C15.0885 22.8937 13.9948 22.988 14 22.9802C14.0621 22.8871 15.1526 23.0498 15.1879 23.0977C15.2715 23.2111 15.3019 23.3207 15.3548 23.45C15.4594 23.7057 15.5471 24.0203 15.8472 24.0434C16.1095 24.0636 16.4093 24.2264 16.6631 24.303C16.8751 24.3669 17.0776 24.4519 17.2854 24.5255C17.4075 24.5688 17.3146 24.5623 17.2442 24.5544C16.9418 24.5204 16.6416 24.4781 16.3376 24.4596C16.2566 24.4547 15.9759 24.4033 15.9008 24.4596C15.8908 24.467 15.9289 24.5913 15.9296 24.6079C15.938 24.793 16.0239 24.9002 16.1233 25.0447C16.1357 25.0627 16.3671 24.9706 16.4282 24.9706C16.5773 24.9706 16.7263 24.9706 16.8754 24.9706C17.0163 24.9706 17.0883 24.9768 17.2071 25.0447C17.2879 25.0909 17.3041 25.227 17.3946 25.2673C17.6753 25.392 17.9882 25.3785 18.295 25.3785C18.5373 25.3785 18.7759 25.3851 19.0161 25.4238C19.1392 25.4437 19.2544 25.5269 19.3787 25.5269C19.5072 25.5269 19.6217 25.5139 19.7496 25.4898C19.8763 25.4659 20 25.4527 20.1287 25.4527C20.2324 25.4527 19.8531 25.5046 19.8155 25.5124C19.5215 25.5741 19.2703 25.7123 18.9708 25.7123C18.8526 25.7123 18.7345 25.7123 18.6164 25.7123C18.508 25.7123 18.4486 25.7348 18.3568 25.7515C18.3347 25.7555 18.2216 25.8194 18.2599 25.8194C18.4027 25.8194 18.5616 25.775 18.6947 25.7288C19.1515 25.5703 19.5596 25.4527 20.0463 25.4527C20.1383 25.4527 20.6756 25.3894 20.7097 25.4918C20.7208 25.525 20.6941 25.5925 20.7427 25.599C20.9609 25.6281 21.2292 25.5608 21.4391 25.5083C21.8135 25.4147 22.1143 25.0429 22.4611 24.8675C22.6453 24.7744 22.7451 24.7078 22.8567 24.5544C22.9365 24.4447 22.9853 24.331 23.0874 24.2288C23.3371 23.9792 23.4304 23.6152 23.7571 23.4314C23.9269 23.3359 24.0715 23.2326 24.2371 23.1347C24.4197 23.0269 24.4933 22.9012 24.6327 22.7618C24.8974 22.4971 25.1593 22.2311 25.4239 21.9665" stroke="#F0CAAB" stroke-width="3" stroke-linecap="round"/>
<path d="M20.9735 28.3085C20.6791 28.3085 20.4691 28.3052 20.2153 28.1602C20.1496 28.1226 20.3017 28.1871 20.3245 28.1972C20.5289 28.2881 20.687 28.4818 20.9179 28.5331C20.9798 28.5469 21.3404 28.7891 21.3444 28.7165C21.3674 28.3024 21.3444 27.8783 21.3444 27.4637C21.3444 27.3491 21.2996 27.1821 21.4392 27.1567C21.61 27.1257 21.8127 27.1802 22 27.1567C22.1934 27.1326 22.3179 26.6333 22.422 26.4706C22.5361 26.2924 22.6385 26.1089 22.7455 25.9267C22.8172 25.8046 22.8693 25.6174 22.968 25.5187C23.0017 25.485 22.9088 25.6417 22.9021 25.527C22.8963 25.4286 22.9849 25.3897 23.0133 25.3044" stroke="#F0CAAB" stroke-width="2" stroke-linecap="round"/>
<path d="M14.6517 23.5372C14.2094 23.5027 13.7671 23.4652 13.3243 23.438C13.2679 23.4346 13.2034 23.4541 13.1552 23.4244C13.1361 23.4126 13.1145 23.3819 13.1047 23.3622C13.0533 23.2595 13.0273 23.1508 12.9726 23.0474C12.8647 22.8437 12.6922 22.7123 12.5703 22.5227C12.474 22.373 12.3082 22.3286 12.2185 22.1748C12.1613 22.0768 12.0173 21.9751 11.9231 21.928" stroke="#F0CAAB" stroke-linecap="round"/>
<path d="M15.876 25.4961C16.1262 25.6857 16.3361 25.8782 16.5678 26.0636C16.636 26.1181 16.7656 26.2257 16.8555 26.2307C16.9546 26.2362 17.1581 26.2762 17.2053 26.3706" stroke="#F0CAAB" stroke-linecap="round"/>
<path d="M28.5046 21.0885C28.58 20.7368 28.7495 20.4386 28.7495 20.074" stroke="#F0CAAB" stroke-linecap="round"/>
<path d="M32.6354 29.1497C32.8546 29.1497 33.0681 29.1506 33.286 29.1748C33.329 29.1796 33.4736 29.1769 33.5093 29.2055C33.6402 29.3102 33.9308 29.3303 34.0929 29.3619C34.2169 29.386 34.3444 29.3728 34.4699 29.3758C34.622 29.3795 34.7746 29.4251 34.9208 29.4638C35.0305 29.4928 35.1345 29.539 35.2433 29.5713C35.3396 29.5998 35.456 29.5314 35.5449 29.5071C35.6536 29.4773 35.7812 29.4752 35.8772 29.4135C35.9185 29.387 35.9605 29.3546 36.0028 29.3312C36.0576 29.3007 36.218 29.2591 36.2276 29.3549C36.2592 29.671 36.1748 29.9075 35.9526 30.1297C35.7661 30.3162 35.6479 30.5798 35.4304 30.7329C35.2471 30.8619 34.872 30.6527 34.872 30.4187C34.872 30.3104 34.6082 30.2333 34.5299 30.1912C34.2584 30.045 33.918 30.1533 33.6378 30.0153C33.4138 29.9049 33.084 29.9321 32.9495 29.69C32.9478 29.6868 33.5339 29.7111 33.6518 29.7221C33.9315 29.748 34.21 29.776 34.4894 29.8044C34.8453 29.8406 35.2116 29.9665 35.5505 30.0795" stroke="#F0CAAB" stroke-linecap="round"/>
<path d="M11.6351 21.7026C11.8685 21.9359 12.1088 22.2457 12.399 22.4134C12.6926 22.583 12.9807 22.7783 13.2833 22.9339C13.3817 22.9845 13.2043 22.9347 13.1821 22.9278C13.1005 22.9025 13.0137 22.8895 12.9363 22.8519C12.8463 22.8082 12.7661 22.7435 12.6652 22.7435C12.5941 22.7435 12.6948 22.9044 12.7243 22.9339C12.8107 23.0203 12.9474 23.1063 13.0556 23.1664C13.1525 23.2202 13.2564 23.2895 13.3592 23.3387C13.561 23.4352 13.7714 23.499 13.9652 23.6097C14.1502 23.7155 14.3763 23.7544 14.5579 23.8712C14.618 23.9098 14.6736 23.9637 14.7362 23.9965C14.7962 24.0279 14.7711 23.9307 14.782 23.9061C14.7974 23.8716 15.2684 23.8726 15.3218 23.8712C15.4421 23.8679 15.5508 23.838 15.6688 23.817C15.8153 23.7908 15.9163 23.7717 16.0302 23.6615C16.155 23.5408 16.3059 23.4509 16.4278 23.329C16.5146 23.2422 16.6571 23.1938 16.7531 23.1218C16.8321 23.0625 17.1872 23.3428 17.3024 23.3844C17.3892 23.4158 17.4852 23.4058 17.5723 23.4375C17.6327 23.4594 17.7027 23.5099 17.7615 23.523C17.8789 23.5491 17.9712 23.6163 18.0759 23.6712C18.2497 23.7622 18.4495 23.8413 18.6361 23.9013C18.8568 23.9722 19.0459 23.9751 19.2325 24.117C19.3394 24.1982 19.4132 24.2168 19.5482 24.2182C19.8516 24.2212 20.1235 24.2601 20.4192 24.3145C20.6368 24.3546 20.8402 24.2646 21.0445 24.1965C21.34 24.098 21.5352 23.8421 21.812 23.7097C21.8507 23.6912 21.8935 23.6704 21.9264 23.6435C21.9297 23.6408 21.9695 23.6141 21.9626 23.6121C21.8194 23.5712 21.6516 23.5731 21.5047 23.5411C21.1014 23.4532 20.7509 23.266 20.3795 23.0953C20.2793 23.0493 20.1691 23.019 20.071 22.97C19.8256 22.8473 19.6144 22.6756 19.3819 22.5315C19.1716 22.4011 19.0236 22.2751 18.9108 22.0495C18.8508 21.9294 18.7348 21.7972 18.6349 21.7074C18.6205 21.6944 18.5818 21.6933 18.5614 21.6797C18.5013 21.6396 18.462 21.5906 18.3867 21.5773C18.1026 21.5267 17.8373 21.4248 17.5591 21.3363C17.3037 21.2551 17.2018 21.583 16.9868 21.6761C16.9018 21.7129 16.5845 21.7402 16.494 21.6893C16.3639 21.6161 16.1908 21.6298 16.0591 21.5411C16.0141 21.5109 15.8955 21.3992 15.9338 21.4375C15.9744 21.4781 16.0633 21.464 16.1145 21.464C16.1936 21.464 16.2728 21.464 16.3519 21.464C16.4446 21.464 16.5281 21.504 16.6181 21.5074C16.874 21.5169 17.129 21.5077 17.3904 21.5399C17.6051 21.5664 17.7747 21.6399 17.9506 21.7724C18.056 21.8518 18.1398 21.902 18.2566 21.9604C18.5427 22.1034 18.7826 22.314 19.0241 22.5206C19.381 22.826 19.6734 23.228 20.1433 23.3676C20.3914 23.4413 20.628 23.5405 20.8807 23.6013C21.0593 23.6443 21.3048 23.633 21.471 23.7085C21.5332 23.7368 21.5924 23.6912 21.6361 23.6519C21.7464 23.5526 21.8623 23.526 22.0083 23.5242C22.0343 23.5239 22.2475 23.5328 22.1891 23.5459C21.9588 23.5974 21.6944 23.5801 21.4614 23.5796C20.9252 23.5785 20.3895 23.5421 19.8542 23.5158C19.6557 23.506 19.4577 23.5025 19.259 23.5025C19.1882 23.5025 19.0941 23.5158 19.0253 23.4905C18.9871 23.4764 18.9683 23.4121 18.953 23.3808C18.8954 23.2628 18.8226 23.1618 18.7289 23.0688C18.4683 22.8101 18.1216 22.6423 17.8229 22.4351C17.7073 22.3549 17.5717 22.3127 17.4422 22.2616C17.2972 22.2044 17.1455 22.0706 17.282 22.3001C17.3988 22.4967 17.5349 22.6806 17.6494 22.8784C17.694 22.9555 17.1772 22.8782 17.1338 22.8688C16.8759 22.8132 16.6782 22.6802 16.5748 22.4423C16.5015 22.2739 16.0577 22.6586 16.0169 22.7098C15.8632 22.9027 15.9111 23.1245 15.6495 23.2085C15.27 23.3305 14.9255 23.2645 14.5423 23.1893C14.2024 23.1225 13.9308 23.0332 13.6471 22.8351C13.5321 22.7548 13.4112 22.6902 13.2941 22.6122C13.2418 22.5773 13.1964 22.5338 13.1363 22.5098C13.0514 22.4758 13.3502 22.5127 13.3676 22.5146C13.614 22.5415 13.8095 22.4826 14.0495 22.4399C14.1324 22.4252 14.2276 22.4139 14.3073 22.3869C14.4636 22.334 14.6068 22.1959 14.7543 22.1182C14.9095 22.0365 15.0647 21.9504 15.223 21.8712C15.2803 21.8426 15.3786 21.8261 15.4254 21.7845C15.5214 21.6991 15.7243 21.7459 15.8495 21.7459C15.982 21.7459 15.8598 22.0223 15.8338 22.0833C15.7307 22.3247 15.5477 22.4483 15.3435 22.5917C15.2427 22.6624 15.1825 22.7751 15.0784 22.8423C14.9964 22.8953 14.8767 22.9236 14.7796 22.9375C14.7314 22.9444 14.7065 22.9382 14.717 22.8832C14.7288 22.8209 14.7939 22.7851 14.8399 22.7495C14.9553 22.6602 15.0741 22.5681 15.1555 22.4447C15.2194 22.3478 15.2296 22.2807 15.3158 22.2074C15.4191 22.1193 15.532 22.0118 15.6688 21.9845" stroke="white" stroke-linecap="round"/>
<path d="M33.0069 32.5159C32.7451 32.474 32.5021 32.4624 32.2564 32.3507C32.163 32.3083 32.0257 32.3324 31.9239 32.3324C31.7502 32.3324 31.722 32.2819 31.722 32.0937C31.722 31.8474 31.6639 31.7167 31.4446 31.6144C31.1632 31.4831 30.9543 31.208 30.6756 31.0841C30.4441 30.9812 30.7016 31.6667 30.7491 31.7592C30.8723 31.9992 31.0321 32.2009 31.1529 32.4425C31.276 32.6887 31.4381 32.7808 31.6853 32.9198C31.8545 33.015 32.0616 33.1266 32.1625 33.3032C32.2237 33.4103 31.7512 33.3603 31.6485 33.3603C31.3678 33.3603 31.0742 33.2789 30.8062 33.1951C30.672 33.1532 30.5131 33.1804 30.384 33.1217C29.9194 32.9106 29.5499 32.5533 29.099 32.2957C28.8903 32.1764 28.699 32.0901 28.5279 31.9285C28.4231 31.8296 28.3489 31.7887 28.2628 31.6715C28.1824 31.5623 28.0663 31.4735 27.9691 31.386C27.8206 31.2524 27.7555 31.0914 27.6386 30.9454C27.5374 30.8189 27.5381 30.8902 27.6019 31.0107C27.6471 31.0961 27.6468 30.9525 27.6468 30.9189C27.6468 30.8388 27.5928 30.7806 27.5652 30.7088C27.4704 30.4625 27.2931 30.2834 27.2144 30.0276C27.1584 29.8456 27.1056 29.622 27.0961 29.432C27.0894 29.2975 26.9859 29.202 26.9859 29.0649C26.9859 28.7961 26.9939 28.5258 26.9859 28.2572C26.9853 28.236 26.92 27.767 27.0145 27.8615C27.0982 27.9452 27.0961 28.2731 27.0961 27.8982C27.0961 27.5787 27.1241 27.3056 27.2042 27.0253C27.2378 26.9078 27.2406 26.7974 27.3001 26.6785C27.4221 26.4343 27.6598 26.1518 27.7182 25.8892C27.8054 25.4967 28.0717 25.2624 28.3443 24.9897C28.6118 24.7222 28.72 24.5751 28.8583 24.2044C28.9831 23.8702 29.0644 23.6806 29.3642 23.5171C29.9039 23.2227 30.5651 23.1173 31.1713 23.1173C31.3559 23.1173 31.4283 23.1014 31.4283 23.3192C31.4283 23.3709 31.391 23.3451 31.3752 23.3335C31.2114 23.2128 31.1648 22.9514 31.1142 22.7706C31.0125 22.4076 31.1783 22.3795 31.5221 22.2709C31.8381 22.1711 32.0716 21.8429 32.3869 21.7569C32.8001 21.6442 33.1584 21.4288 33.5372 21.247C33.7189 21.1598 33.9672 21.1637 34.1654 21.143C34.3439 21.1243 34.5172 21.0614 34.6957 21.0614C34.8179 21.0614 35.0043 21.0633 35.1139 21.0043C35.2439 20.9342 35.3004 20.8498 35.4667 20.8411C35.6144 20.8333 35.8453 20.7156 35.8991 20.9308C36.0439 21.51 36.0311 22.1256 36.1928 22.7012C36.2598 22.9396 36.2217 23.179 36.2581 23.4233C36.307 23.7513 36.3111 24.0657 36.3111 24.3982C36.3111 24.9077 36.3503 25.4321 36.2663 25.9361C36.214 26.2497 36.0374 26.3361 35.7768 26.4664C35.6322 26.5387 35.4943 26.662 35.3178 26.6153C35.1597 26.5734 35.0388 26.4263 34.9568 26.2951C34.6348 25.7798 34.4699 25.1717 34.4306 24.5695C34.4005 24.1083 34.4714 23.6194 34.1267 23.256C33.8853 23.0016 33.7008 23.3102 33.6311 23.5497C33.4152 24.2907 33.3493 25.0612 33.4026 25.826C33.4233 26.1229 33.471 26.379 33.5923 26.652C33.6229 26.7209 33.686 26.9723 33.6147 27.0293C33.5766 27.0599 33.4321 26.9835 33.3863 26.9845C33.1872 26.9886 33.0155 27.1143 32.8111 27.0926C32.7112 27.0819 32.6256 27.0351 32.5358 26.9947C32.4396 26.9514 32.3446 27.0606 32.2645 27.1028C31.7716 27.3622 31.2393 27.3928 31.0978 28.0451C31.0445 28.2909 31.0712 28.6081 30.8429 28.7793C30.7827 28.8245 30.6983 28.7965 30.6308 28.7916C30.3736 28.7728 30.1742 28.8543 29.9149 28.7508C29.5975 28.6241 29.1832 28.3823 29.1806 27.992C29.1796 27.8534 29.2474 27.7077 29.2601 27.5678C29.2676 27.4861 29.2565 27.4045 29.2703 27.323C29.3533 26.8343 29.6825 26.3869 30.0168 26.034C30.1845 25.8571 30.3427 25.5841 30.5839 25.5037" stroke="#FFDE6C" stroke-width="3" stroke-linecap="round"/>
<path d="M34.145 32.2224C34.145 31.7654 34.4591 31.204 34 31C33.7816 30.9029 33.3215 31.0158 33.0967 30.9149C32.8185 30.7902 32.4704 30.6147 32.2523 30.403C32.1866 30.3392 32.1606 30.2924 32.1054 30.2215C32.0664 30.1714 32.0383 30.0524 31.9973 30.0196C31.9088 29.9488 31.8852 29.688 31.8505 29.577C31.787 29.3738 31.7587 29.1654 31.7587 28.9549C31.7587 28.805 31.7619 28.6743 31.7933 28.5327C31.8417 28.3152 32.0092 28.3675 32.1992 28.3675C32.3822 28.3675 32.4782 28.1747 32.6602 28.1553C32.8176 28.1385 32.979 28.1472 33.1375 28.1472C33.2466 28.1472 33.3372 28.1976 33.4475 28.1818C33.5379 28.1689 33.5263 28.2178 33.6025 28.2206C33.856 28.23 34.1116 28.2206 34.3653 28.2206C34.5788 28.2206 34.7923 28.2206 35.0058 28.2206C35.4396 28.2206 35.8618 28.1472 36.2928 28.1472C36.3694 28.1472 36.4467 28.1502 36.5232 28.1472C36.6091 28.1437 36.5363 28.0015 36.6334 27.9799C36.6709 27.9716 36.8712 27.68 36.9108 27.6189C37.0966 27.3317 37.228 26.952 37.3758 26.6399C37.4756 26.4291 37.4649 26.2179 37.539 26.0096C37.6307 25.7515 37.8077 25.5398 37.9102 25.2917C38.0383 24.9816 37.8922 23.9857 38.0285 24.2923C38.0928 24.437 37.9556 23.9968 37.9428 23.9639C37.8068 23.6141 37.5871 23.2992 37.4717 22.94C37.4168 22.7692 37.4479 22.5635 37.4778 22.3913C37.5518 21.9659 37.522 21.5039 37.5594 21.0737C37.5794 20.8439 37.5619 20.6442 37.7062 20.4598C37.8414 20.2871 38.1902 20.1437 38.4038 20.1437C38.4685 20.1437 38.5633 20.1605 38.6241 20.1355C38.6889 20.1088 38.6975 20.2504 38.6975 20.1579C38.6975 19.9831 38.6562 18.5559 38.6159 18.5732C38.4618 18.6392 38.2961 18.873 38.2365 19.03C38.1472 19.2654 38.1075 19.2742 37.9204 19.3584C37.716 19.4504 37.5479 19.6159 37.4288 19.8051C37.2978 20.0132 37.6511 20.0122 37.7593 20.0335C38.0912 20.0992 38.2714 20.2072 38.5588 20.3639C38.6652 20.422 39.052 20.5151 39.0381 20.5108C38.3366 20.295 37.5832 20.309 36.8618 20.2151C36.6853 20.1921 36.2284 20.2022 36.3478 20.0702C36.41 20.0015 36.4529 19.907 36.4865 19.8214C36.4946 19.8008 36.5576 19.7765 36.5355 19.7765C36.2897 19.7765 36.0461 19.7731 35.8053 19.8296C35.5289 19.8944 35.1962 19.9636 34.9711 20.1437C34.9361 20.1717 34.767 20.2864 34.7794 20.2864C34.9208 20.2864 35.0791 20.2128 35.2179 20.1885C35.4436 20.1491 35.6668 20.1437 35.895 20.1437C36.0301 20.1437 36.1287 20.0897 36.2601 20.0702C36.3552 20.0562 36.4713 20.0474 36.5518 19.9887C36.6159 19.9419 36.6386 19.8612 36.7068 19.8132C36.8137 19.738 36.9376 19.7031 36.7231 19.7031C36.5995 19.7031 36.1822 19.6002 36.1622 19.7398C36.1056 20.1364 35.5011 20.4522 35.2199 20.6658C34.9747 20.8521 34.7194 21.0453 34.5285 21.2899C34.3299 21.5443 34.1987 21.8568 33.9778 22.0936C33.8844 22.1936 33.8146 22.1717 33.8146 22.0528" stroke="#FFDE6C" stroke-linecap="round"/>
<path d="M6.89478 15.8458C7.18707 15.5535 7.70939 15.2508 7.8772 14.8732C7.93818 14.736 7.99279 14.5768 8.03439 14.4311C8.06928 14.309 8.05156 14.1441 8.09825 14.0333C8.22212 13.7391 8.42607 13.5173 8.65332 13.2719C8.80189 13.1114 8.97261 12.9128 8.97261 12.6849C8.97261 12.5742 9.04797 12.4451 9.06349 12.3287C9.08647 12.1564 9.1991 12.0083 9.23541 11.8449C9.32391 11.4466 9.62107 11.8551 9.90101 11.9554C10.1067 12.0291 10.3414 12.1179 10.4757 12.2993C10.6325 12.511 10.8595 12.7597 11.0947 12.8838C11.2644 12.9734 11.4782 13.0607 11.6694 13.0607C11.9546 13.0607 11.8481 12.8074 11.802 12.5768C11.7031 12.0823 11.5729 11.6797 11.0947 11.4937C10.8041 11.3807 10.475 11.3462 10.1908 11.4274C9.92936 11.5021 10.763 11.5244 11.0062 11.4028C11.2704 11.2707 11.681 11.0656 11.8806 11.4249C12.0605 11.7487 12.4944 11.8931 12.6764 12.2207C12.7319 12.3206 12.8688 12.7954 12.9293 12.7954C13.0238 12.7954 13.0834 12.6457 13.1946 12.621C13.3515 12.5862 13.3705 12.6049 13.2585 12.4368C13.163 12.2937 13.0841 12.0643 13.0841 11.8891C13.0841 11.7882 13.0427 11.6474 12.9514 11.6017" stroke="#F0CAAB" stroke-width="2" stroke-linecap="round"/>
<path d="M13.3493 10.8942C13.7577 10.8942 14.1469 10.8291 14.543 10.8058C14.6039 10.8022 14.8323 10.4723 14.8967 10.4079C14.9896 10.315 15.1628 10.2311 15.2945 10.2311C15.3609 10.2311 15.4272 10.2311 15.4935 10.2311C15.6194 10.2311 15.5542 10.205 15.5156 10.2532C15.4533 10.331 15.0929 10.3637 15.0047 10.3637C14.7496 10.3637 14.5083 10.4079 14.2556 10.4079C14.1627 10.4079 13.7111 10.4089 13.6588 10.4743C13.6214 10.521 14.1311 10.4531 14.1991 10.4423C14.5023 10.3942 14.8099 10.3617 15.1103 10.2999C15.2128 10.2788 15.3578 10.3043 15.437 10.2409C15.4602 10.2223 15.8448 10.223 15.8152 10.1967C15.7309 10.1217 15.3298 10.1845 15.2258 10.1893C14.9025 10.2044 14.5913 10.3594 14.2876 10.462C13.9187 10.5865 13.57 10.6888 13.1946 10.7862C12.9107 10.8598 12.6464 10.8942 12.3546 10.8942C12.2226 10.8942 12.0286 10.9293 11.9248 11.0023C11.188 11.5208 10.1679 11.7877 9.70207 12.6159C9.58359 12.8266 9.69063 13.2465 9.48102 13.4142C9.30786 13.5527 9.23603 13.8778 9.07085 14.0429C8.66954 14.4442 10.0204 13.4078 10.4217 13.0065C10.457 12.9712 10.8294 12.594 10.8294 12.8149C10.8294 13.0329 10.6393 13.1622 10.4978 13.3036C10.2974 13.504 10.1097 13.7339 9.94767 13.9668C9.78602 14.1992 9.62654 14.4476 9.594 14.7405C9.58937 14.7821 9.5262 15.0516 9.59154 14.9517C9.72317 14.7504 9.81863 14.536 9.96978 14.3426C10.0369 14.2566 10.741 13.6336 10.741 13.9054C10.741 14.2577 10.6772 15.3133 10.6968 14.9615C10.7006 14.8934 10.8396 14.1513 10.9964 14.3082C11.1211 14.4329 10.9752 14.7847 11.2297 14.7847C11.4196 14.7847 11.8462 14.2406 11.8462 14.5661C11.8462 14.7782 11.5384 15.0244 11.4827 14.6962C11.457 14.5446 11.4588 14.099 11.4017 14.2419C11.3819 14.2913 11.3635 14.5068 11.2715 14.4654C11.0714 14.3753 10.892 14.1684 10.6452 14.2271C10.308 14.3074 10.2611 14.5789 10.2547 14.8633C10.2439 15.3398 9.89347 15.3962 9.4933 15.2169C9.25351 15.1095 8.95968 14.9739 8.75402 14.8068C8.66259 14.7325 8.57473 14.3844 8.57473 14.5022C8.57473 14.7047 8.62159 14.9624 8.6656 15.1604C8.69758 15.3044 8.642 15.4003 8.68525 15.5387C8.73559 15.6997 8.75157 15.932 8.75157 16.1011C8.75157 16.2815 8.6605 16.2801 8.50841 16.3123C8.31026 16.3544 8.11896 16.4285 7.92141 16.4744C7.81414 16.4994 7.71465 16.591 7.60212 16.5972C7.41955 16.6074 7.67138 16.4649 7.77896 16.5186C7.89503 16.5767 8.00142 16.7213 8.09825 16.8085C8.21317 16.9119 8.36021 16.9906 8.51087 16.9951C8.60041 16.9978 8.49563 17.1389 8.57473 17.0937C8.65007 17.0507 8.9284 16.6699 8.9284 16.5751C8.9284 16.4061 9.06195 16.2135 9.13962 16.0667C9.2778 15.8057 9.23008 16.0603 9.2919 16.1453C9.37904 16.2651 9.49903 16.33 9.6554 16.2853C9.76563 16.2538 9.89015 16.1846 10.0115 16.1576C10.1221 16.133 10.1491 16.1142 10.2498 16.0471C10.3631 15.9715 10.5903 15.9289 10.6722 15.8236C10.7531 15.7195 10.8456 15.6084 10.9399 15.5141C11.0771 15.3769 11.0385 15.2101 11.1045 15.0499C11.1404 14.9627 10.9852 15.0786 10.9424 15.0941C10.8185 15.1392 10.9202 15.2168 10.962 15.2808C11.1067 15.502 10.9694 15.6048 11.2371 15.5018C11.5142 15.3953 11.7941 15.3153 12.0673 15.1924C12.1826 15.1405 12.2855 15.1861 12.3767 15.072C12.4997 14.9183 12.9088 14.6962 13.1062 14.6962C13.2339 14.6962 13.3934 14.6243 13.5262 14.6054C13.7112 14.5789 13.8611 14.5079 14.0567 14.5194C14.1313 14.5238 14.015 14.5405 13.9216 14.4752C13.8026 14.3919 13.6991 14.3868 13.5606 14.3868C13.3285 14.3868 13.1022 14.3426 12.8655 14.3426C12.4815 14.3426 12.0976 14.3426 11.7136 14.3426" stroke="#F0CAAB" stroke-linecap="round"/>
<path d="M28.1007 22.4082C27.952 22.4082 27.8502 22.4239 27.7132 22.4852C27.6245 22.5249 27.6199 22.5833 27.558 22.6453C27.4691 22.7341 27.373 22.8039 27.3101 22.9172C27.2882 22.9567 27.2876 22.939 27.2523 22.9425C27.1298 22.9547 26.9551 23.2126 26.8925 23.3011C26.7984 23.434 26.6748 23.5643 26.5965 23.7066C26.5619 23.7694 26.484 23.8541 26.4762 23.9244C26.4701 23.9795 26.4392 23.9409 26.4064 23.9461C26.2592 23.9691 26.0873 24.1972 25.9984 24.3071C25.8106 24.5394 25.6599 24.7895 25.4918 25.0387C25.4434 25.1105 25.3887 25.2045 25.3234 25.2625C25.2869 25.2949 25.2771 25.4518 25.2644 25.5164C25.2189 25.7478 25.1724 25.9394 25.0887 26.159C24.977 26.4523 24.9403 26.775 24.8252 27.0627C24.6578 27.4811 24.5914 27.9676 24.5701 28.4153C24.5659 28.5034 24.5255 28.6456 24.5159 28.7558C24.4919 29.0339 24.4834 29.3083 24.4834 29.5873C24.4834 29.9879 24.4861 30.3603 24.6303 30.7425C24.6911 30.9038 24.7176 31.0678 24.7783 31.2275C24.8787 31.4918 25.0535 31.7289 25.197 31.9711C25.3122 32.1654 25.4253 32.3412 25.5689 32.5162C25.6569 32.6235 25.7373 32.7371 25.8264 32.8435C25.8953 32.9259 25.9919 32.9853 26.0646 33.0661C26.2282 33.2479 26.4066 33.403 26.5845 33.5631C26.663 33.6338 26.4089 33.5085 26.3847 33.4981C26.1984 33.418 25.998 33.3709 25.8095 33.2984C25.7166 33.2626 25.5995 33.2368 25.7855 33.2936C26.0186 33.3648 26.2406 33.4774 26.4533 33.5944C26.5427 33.6436 26.6388 33.6646 26.7265 33.7147C26.7536 33.7303 26.7849 33.7322 26.8059 33.7533C26.8572 33.8046 26.6648 33.7193 26.5941 33.7027C26.4196 33.6619 26.2455 33.5848 26.0646 33.5848C25.9225 33.5848 25.8391 33.6449 25.6844 33.5896C25.5988 33.559 25.4904 33.486 25.4028 33.5318C25.3425 33.5634 25.2871 33.6254 25.2151 33.6281C25.1483 33.6306 25.0739 33.6656 25.0129 33.6979C24.9838 33.7133 24.9797 33.8049 24.9275 33.8339C24.8691 33.8663 24.7952 33.8229 24.7434 33.799C24.3687 33.6263 24.0418 33.3915 23.6868 33.1841C23.6009 33.1339 23.4918 33.098 23.4173 33.0288C23.3284 32.9463 23.1883 32.9797 23.0731 32.9663C22.7571 32.9294 22.4755 32.8949 22.1875 32.7509C21.8938 32.604 21.6069 32.445 21.3018 32.3213C20.8814 32.1507 20.4891 31.9292 20.0744 31.7485C19.9992 31.7157 19.7559 31.6557 19.7399 31.5487C19.7179 31.4019 19.576 31.257 19.504 31.1324C19.3036 30.7852 19.1597 30.3992 18.9974 30.0325C18.8687 29.7416 18.7439 29.4482 18.6473 29.1445C18.6222 29.0657 18.6179 28.9672 18.6136 28.8846C18.6107 28.8307 18.5886 28.7712 18.5703 28.7209C18.5636 28.7026 18.5176 28.5645 18.5317 28.6439C18.6266 29.1751 19.0548 29.329 19.4511 29.5969C19.7565 29.8034 20.085 29.945 20.4234 30.0879C20.6819 30.197 20.9137 30.3038 21.1839 30.3671C21.3265 30.4004 21.4714 30.461 21.6195 30.4657C21.7574 30.4702 21.9057 30.3077 21.9889 30.2154C22.1994 29.9821 22.3202 29.6722 22.4931 29.4116C22.4948 29.4091 22.5406 29.3177 22.5605 29.3394C22.5627 29.3418 22.571 29.3545 22.5774 29.3514C22.6661 29.3083 22.7852 29.1706 22.8469 29.1132C23.2637 28.7255 23.719 28.3711 23.9095 27.8208C23.9649 27.6607 23.9263 27.481 23.9853 27.3226C23.9964 27.2928 23.9922 27.3012 23.9516 27.3226C23.7273 27.4411 23.5324 27.6214 23.3427 27.7871C23.2929 27.8306 23.1405 27.9229 23.1405 28.0073C23.1405 28.0778 23.2737 27.9888 23.297 27.9724C23.4144 27.89 23.4842 27.7536 23.5545 27.6331C23.6934 27.3949 23.8251 27.1535 23.9371 26.9015C24.025 26.7036 24.1118 26.5179 24.25 26.3503C24.396 26.1733 24.7181 25.5682 24.6423 25.7848C24.5395 26.0785 24.3712 26.3646 24.2476 26.6488C23.9215 27.3984 23.6197 28.1557 23.4197 28.9495C23.3408 29.2627 23.2633 29.5802 23.2452 29.9038C23.2336 30.1124 23.2325 30.3592 23.3812 30.5259C23.5102 30.6705 23.7065 30.7604 23.8794 30.8388C23.9282 30.8609 24.0822 30.8989 24.0286 30.8989C23.9695 30.8989 23.9462 30.2855 23.9431 30.2503C23.9129 29.903 23.9264 29.5655 23.9203 29.2191C23.919 29.1445 23.8692 29.0962 23.8565 29.0265C23.8526 29.0049 23.8543 28.9781 23.8577 28.9568C23.8904 28.7524 23.8939 29.1053 23.8938 29.1084C23.8831 29.8809 23.8701 30.6536 23.8962 31.426C23.9081 31.7781 23.9009 32.1974 24.0286 32.5379C24.13 32.8082 24.4105 32.9211 24.6639 33.012C24.7739 33.0514 24.886 33.0865 25.0009 33.1083C25.0415 33.116 25.2722 33.1906 25.2006 33.1047C25.0435 32.9161 24.8502 32.7552 24.6808 32.5776C24.5514 32.4419 24.4297 32.2998 24.2921 32.1721C24.2286 32.1131 24.1131 32.0451 24.0791 31.9603C24.0521 31.8927 24.071 31.7862 24.0719 31.7148C24.0749 31.4806 24.2871 31.8097 24.339 31.8724C24.3478 31.883 24.5611 32.1402 24.4088 32.065C24.0035 31.8648 23.6194 31.4976 23.3186 31.1661C23.0968 30.9216 22.9695 30.6985 22.9901 30.3683C22.9941 30.3046 23.0235 30.2513 23.0058 30.1842C22.9675 30.0396 22.8037 30.3218 22.7928 30.3406C22.6142 30.648 22.5769 30.954 22.7506 31.2672C22.9902 31.6991 23.3669 32.0464 23.6507 32.4476C23.6721 32.4779 23.8152 32.6244 23.6904 32.5355C23.2201 32.2002 22.7097 31.8169 22.3872 31.3297C22.3042 31.2043 22.2181 31.0474 22.155 30.9086C22.1489 30.8952 22.1462 30.8585 22.1333 30.8508C22.1236 30.845 22.1243 30.872 22.1237 30.8833C22.117 31.0136 22.1402 31.1503 22.1658 31.2768C22.2263 31.5752 22.31 31.876 22.433 32.1552C22.4508 32.1957 22.5241 32.3064 22.4979 32.2707C22.2413 31.9208 21.6419 31.8279 21.5052 31.3875C21.4749 31.2899 21.42 31.2296 21.3656 31.148C21.331 31.0962 21.3222 30.9128 21.2465 30.9086C21.0981 30.9003 21.1478 31.198 21.1478 31.2732C21.1478 31.4305 21.1303 31.4634 20.9601 31.4477C20.8971 31.4418 20.7718 31.4112 20.7423 31.3719C20.642 31.2381 20.4621 31.1614 20.3416 31.0457C20.2288 30.9375 20.1433 30.8066 20.0335 30.6968C19.9801 30.6434 19.8722 30.6244 19.8482 30.5524" stroke="white" stroke-linecap="round"/>
<path d="M18.5091 -0.0265703C18.373 -0.00906847 17.8879 0.0521878 17.4454 0.104693C15.1051 0.375971 12.3139 1.30357 10.1694 2.51994C4.75703 5.61776 1.1403 10.9033 0.195693 17.1164C-0.0170555 18.4728 -0.00854558 21.4831 0.195693 22.8045C0.391422 24.0034 0.85947 25.8761 1.19987 26.8124C3.28481 32.4567 7.88018 36.9635 13.5308 38.8887C15.7349 39.65 17.5986 39.9475 20.0409 39.9475C23.3853 39.9475 26.1425 39.2999 29.0615 37.8123C31.64 36.5084 33.827 34.7495 35.6311 32.5443C36.8821 31.0041 38.1756 28.7289 38.882 26.8124C39.2394 25.8323 39.7074 23.9684 39.8861 22.7608C40.0904 21.3869 40.0904 18.4641 39.8861 17.1164C39.3585 13.6948 38.0565 10.5708 36.0566 7.91924C32.8569 3.70131 28.219 0.936028 22.9683 0.139697C22.1258 0.00843331 19.0538 -0.105328 18.5091 -0.0265703ZM22.8917 1.37357C30.7039 2.58995 36.9332 8.5318 38.499 16.2676L38.7203 17.344L38.0224 18.0353C37.3161 18.7178 37.3161 18.7178 37.1374 18.5516C36.8311 18.2628 36.0822 18.4203 36.0822 18.7791C36.0822 18.8491 35.9801 18.9279 35.8524 18.9541C35.078 19.1204 33.7079 19.4967 32.976 19.7592C32.125 20.0567 30.2358 20.9668 29.555 21.4044L29.1976 21.6319L29.3168 21.3256C29.3848 21.1506 29.4444 20.8443 29.4444 20.6255C29.4444 20.258 29.4699 20.223 29.8529 19.978C31.623 18.8054 31.6995 17.2564 30.0656 15.6113L29.4444 14.99L29.6657 14.2549C30.1848 12.566 31.1124 10.6495 31.7676 9.9232L32.108 9.53816L31.6144 8.79433C29.8699 6.15156 27.2318 4.38388 24.2704 3.85883C22.6364 3.57005 20.9515 3.6313 19.1218 4.05135C18.2028 4.26137 18.2623 4.19136 18.1687 5.12771C18.0921 5.92404 17.6496 8.05926 17.3177 9.27563C16.9943 10.4045 16.6199 11.2708 15.8966 12.5047C15.4966 13.196 15.454 13.231 15.1987 13.2048C14.952 13.1785 14.9349 13.161 14.9605 12.8635C14.986 12.6185 14.9264 12.4697 14.6967 12.1547L14.4073 11.7609L15.3689 11.3058C15.8966 11.0521 16.3986 10.7633 16.4752 10.6758C16.5603 10.5795 16.6369 10.3082 16.6625 10.037L16.6965 9.56441L16.0327 9.50315C15.5136 9.45065 15.0371 9.48565 13.9223 9.65192C12.5436 9.85319 12.4841 9.85319 12.1607 9.70442C11.8628 9.57316 11.7863 9.57316 11.3863 9.67817C11.1395 9.73943 10.7565 9.77443 10.5098 9.74818C10.2289 9.71317 9.97363 9.74818 9.76088 9.83569C9.41198 9.9932 8.68012 10.5533 8.07591 11.1396C7.36959 11.8221 6.63773 13.3448 6.63773 14.1236C6.63773 14.4562 6.442 14.7974 5.80375 15.585C5.78673 15.6113 5.59951 15.4363 5.40379 15.2087L5.02935 14.7887L4.85064 15.4275C4.74852 15.7775 4.62938 16.2238 4.56981 16.4164C4.51875 16.6089 4.46769 16.7839 4.45067 16.8101C4.43365 16.8276 4.306 16.7139 4.16133 16.5476C3.83795 16.1538 3.81242 16.2063 3.58266 17.4577C2.67209 22.4195 3.76136 26.4799 6.6122 28.6851C8.50992 30.1553 10.8331 30.8641 14.0244 30.9603C15.5647 31.0128 15.5732 31.0128 15.5732 31.2141C15.5732 31.4241 15.5306 31.4329 14.7222 31.5642C13.0968 31.8092 11.1735 32.8768 9.24178 34.6095L8.76522 35.0295L7.97379 34.3732C0.70629 28.3001 -0.919111 17.7902 4.16984 9.85319C5.92289 7.13166 8.31419 4.91768 11.148 3.39503C13.2755 2.24866 15.8115 1.47858 18.2198 1.23356C19.3005 1.12855 21.794 1.19855 22.8917 1.37357ZM23.496 5.04895C23.9385 5.12771 24.6959 5.32023 25.1809 5.48649C26.0404 5.77527 27.2318 6.35283 27.2318 6.47534C27.2318 6.51035 27.0531 6.77287 26.8404 7.06165C26.1596 7.94549 25.3256 9.30188 24.8065 10.3432C24.5342 10.8945 24.3044 11.3496 24.2959 11.3671C24.2874 11.3758 24.0321 11.2883 23.7257 11.1746C22.7726 10.807 21.6918 10.562 20.1856 10.3695C19.8111 10.3257 19.7346 10.2907 19.7771 10.1682C19.7941 10.0895 20.0069 9.46815 20.2451 8.78558C20.6366 7.63921 20.943 6.35283 21.0621 5.32023L21.1132 4.90893H21.9046C22.3386 4.90893 23.0534 4.97019 23.496 5.04895ZM30.7464 8.9956C30.8741 9.17062 30.9762 9.36314 30.9762 9.42439C30.9762 9.48565 30.7635 9.86194 30.4996 10.2645C29.8444 11.2621 29.0785 12.8635 28.6445 14.1324C28.5934 14.2811 28.5424 14.2549 28.1679 13.8786L27.7509 13.4586L27.9637 12.8985C28.4828 11.4721 30.1082 8.66307 30.406 8.67182C30.4656 8.68057 30.6103 8.82058 30.7464 8.9956ZM15.8625 10.037C16.0753 10.1157 16.0242 10.317 15.7689 10.457C15.6328 10.5183 15.1987 10.6758 14.7903 10.807C14.3903 10.9295 14.0414 11.0783 14.0244 11.1396C13.9733 11.2883 13.735 11.1658 13.5648 10.9033C13.3691 10.597 13.4712 10.422 13.9223 10.2645C14.4669 10.072 15.6157 9.9407 15.8625 10.037ZM11.9735 10.3957C12.3479 10.5795 14.1265 12.3472 14.1265 12.531C14.1265 12.636 13.9903 12.6972 13.5989 12.776C13.301 12.8285 12.867 12.9773 12.6287 13.1085L12.1947 13.3448L11.548 13.021C10.8246 12.671 10.3311 12.3384 9.84598 11.8746C9.66727 11.6996 9.51409 11.5596 9.50558 11.5596C9.49707 11.5596 9.5226 11.9447 9.56515 12.426C9.66727 13.6248 9.59919 13.9836 9.13966 14.6224C8.79926 15.1037 8.69714 15.3225 8.80777 15.3225C8.92691 15.3225 9.50558 14.9725 9.63323 14.8324C9.88853 14.5262 10.1353 13.9486 10.1864 13.5023L10.2374 13.0648L10.697 13.371C10.9523 13.5373 11.2842 13.7298 11.4373 13.7911C11.6841 13.8961 11.7097 13.9486 11.6756 14.1761C11.6331 14.4999 11.7182 14.5087 12.4245 14.3161C12.6798 14.2461 13.0627 14.1849 13.2755 14.1849C13.7435 14.1849 14.3392 14.5087 14.3392 14.7537C14.3392 14.9112 14.2626 14.9375 13.735 14.9812C13.2415 15.0162 12.9691 15.1037 12.2883 15.445C11.8288 15.6725 11.2331 15.9876 10.9778 16.1538C10.5608 16.4076 10.4587 16.4339 10.0332 16.3989C9.41198 16.3376 9.23327 16.4426 9.06307 16.9852C8.92691 17.4052 8.9184 17.414 8.65459 17.3615C7.8972 17.2127 6.29733 16.3464 6.29733 16.0838C6.29733 15.8826 6.47604 15.41 6.56114 15.41C6.59518 15.41 6.68879 15.515 6.75687 15.6463L6.87601 15.8913L6.92707 15.6725C7.1228 14.7012 7.19939 14.4037 7.41214 13.8086C8.03336 12.0409 9.30986 10.5183 10.1864 10.5095C10.3651 10.5008 10.7225 10.4482 10.9778 10.3782C11.599 10.2207 11.6246 10.2207 11.9735 10.3957ZM20.977 11.0696C22.2024 11.2971 23.0279 11.6121 24.8235 12.531C26.5851 13.4411 26.6446 13.5898 24.9597 12.9072C24.4406 12.6972 23.9725 12.5222 23.93 12.5222C23.8193 12.5222 23.6236 13.0998 23.6917 13.2135C23.7172 13.2573 24.0321 13.3185 24.3895 13.3535C25.1469 13.4236 26.2702 13.7211 27.2318 14.1061C27.9807 14.3949 28.0828 14.5349 27.4361 14.3686C25.7341 13.9224 24.2874 13.7386 20.8919 13.5373C17.99 13.3535 17.1645 13.266 16.5518 13.056L16.0412 12.881L17.2582 12.8985L18.4836 12.9248L18.7729 12.3297C19.0623 11.7346 19.0623 11.7346 19.4282 11.7346C19.6239 11.7346 20.4579 11.8134 21.2749 11.9096C22.0918 11.9972 22.7726 12.0672 22.7896 12.0497C22.8322 12.0059 21.4876 11.6384 20.7643 11.4984C20.4153 11.4371 19.4282 11.3583 18.5772 11.3233C17.3262 11.2796 17.0199 11.2446 17.0199 11.1483C17.0199 11.0871 17.105 10.9908 17.2156 10.947C17.4879 10.8158 20.0664 10.912 20.977 11.0696ZM16.254 14.0099C16.7476 14.1586 17.3007 14.3161 17.4964 14.3599C17.7773 14.4299 20.5345 14.8762 20.7472 14.885C20.7813 14.8937 20.6536 14.9725 20.4664 15.0775C19.9303 15.3575 19.4878 15.8651 19.4878 16.1976C19.4878 16.3901 19.8537 16.2676 20.109 15.9876C20.8323 15.1912 21.3855 15.375 22.3811 16.7226C22.9003 17.4227 23.0109 17.519 23.0875 17.3089C23.1811 17.0464 22.4918 15.6113 22.1258 15.2875C21.7855 14.9987 21.828 14.9987 23.3768 15.3312C24.9512 15.6638 25.666 15.8738 26.4234 16.2413C27.6063 16.8101 28.0828 17.3265 28.0828 18.044C28.0828 18.5253 28.0318 18.5603 27.3254 18.5603C26.917 18.5603 26.7808 18.6041 26.5255 18.8054C26.1 19.1379 25.9723 19.4004 26.1425 19.5842C26.3213 19.7592 26.6021 19.6892 26.9425 19.3917C27.1893 19.1729 27.4105 19.1291 27.9977 19.1641C28.4232 19.1991 28.7381 19.5317 28.8572 20.0917C28.9423 20.4855 28.9338 20.5905 28.8062 20.8706C28.5253 21.4656 27.6318 21.9557 26.6787 22.0257C25.7766 22.0957 25.7 22.1219 25.7 22.367C25.7 22.542 25.7426 22.5857 25.9128 22.5857C26.3553 22.5857 26.2532 22.8308 25.4958 23.5571C23.8363 25.1585 22.5173 27.215 21.845 29.2539C21.811 29.3414 21.7089 29.4114 21.6067 29.4114C21.394 29.4114 20.5855 28.9826 20.2111 28.6764L19.9558 28.4663L20.1345 28.2126C20.3643 27.8975 20.5175 27.8713 21.1217 28.0638C21.6067 28.2126 21.6238 28.2126 21.7429 28.0463C21.811 27.9588 21.8706 27.8538 21.8706 27.8275C21.8706 27.8013 21.6067 27.6875 21.2834 27.5737C20.7132 27.3725 20.6962 27.355 20.8749 27.2325C21.1472 27.0487 21.7004 26.5061 21.794 26.3224C21.862 26.2086 21.7089 26.2524 21.2153 26.5061C20.5515 26.8474 20.543 26.8474 19.2325 26.9087C17.8368 26.9787 17.4284 26.9262 16.5944 26.5936C15.9987 26.3574 15.1647 25.7536 14.7647 25.281L14.4584 24.9047L15.0371 24.8347C15.7774 24.756 16.5603 24.5459 16.8837 24.3534C17.1305 24.2047 17.139 24.2047 17.8198 24.5634C18.8495 25.1147 19.3686 25.246 20.3217 25.1848C20.9515 25.1497 21.2153 25.0885 21.6408 24.8785C22.8322 24.3009 23.7427 23.3383 23.7427 22.6557C23.7427 22.262 23.7257 22.262 22.9768 22.507C21.6918 22.927 20.7557 22.6295 19.6409 21.4481C18.9261 20.6955 18.5772 20.4593 18.2283 20.503C18.0496 20.5205 17.99 20.5818 17.973 20.7743C17.9475 20.9756 17.99 21.0368 18.2283 21.1331C18.3815 21.2031 18.7134 21.5181 18.9857 21.8594C19.6835 22.7345 21.011 23.4608 21.9131 23.4608C22.1258 23.4608 22.296 23.4958 22.296 23.5396C22.296 23.8459 21.0196 24.4059 20.1515 24.4847C19.3942 24.5634 18.3985 24.2309 17.3773 23.5746L16.9263 23.2771L16.5688 23.5921C16.1263 23.9859 15.7093 24.1084 14.7988 24.1171C14.135 24.1171 14.0244 24.0909 13.4882 23.8109C12.816 23.4608 12.1011 22.787 11.8373 22.262C11.6756 21.9294 11.6075 21.6231 11.6926 21.6231C11.7097 21.6231 12.0245 21.7719 12.3905 21.9469C13.301 22.3932 13.8372 22.402 14.6626 21.9732C15.2668 21.6669 15.7689 21.1768 15.7264 20.9493C15.6668 20.6518 15.437 20.6168 15.1477 20.8706C14.7052 21.2469 14.2201 21.4656 13.6925 21.5094L13.2074 21.5619L13.1478 20.538C13.1138 19.9867 13.1138 19.2604 13.1393 18.9366C13.301 17.3177 13.8882 15.725 14.4158 15.4625C14.9264 15.2175 15.2158 15.2962 16.0072 15.9176C16.4327 16.2501 16.5093 16.1801 16.2965 15.6288C16.1348 15.1825 15.5902 14.6399 15.2328 14.5612C15.0626 14.5262 14.9775 14.4562 14.9775 14.3511C14.9775 14.1236 15.1562 13.7473 15.2668 13.7473C15.3179 13.7473 15.7604 13.8698 16.254 14.0099ZM26.0745 14.9812C28.7977 15.3487 30.5507 16.4339 30.5507 17.7727C30.5507 18.3591 30.1337 19.0241 29.5721 19.3217C29.3678 19.4354 29.3168 19.4354 29.2827 19.3392C29.2317 19.1816 28.8402 18.7791 28.687 18.7266C28.5934 18.6916 28.6104 18.6128 28.7551 18.3153C29.2317 17.3527 28.7721 16.6089 27.2744 15.8913C26.5255 15.5325 25.8107 15.2962 24.6788 15.0162L23.7853 14.7974L24.5937 14.8412C25.0363 14.8674 25.7 14.9287 26.0745 14.9812ZM13.6159 15.48C13.6159 15.5238 13.4627 15.9613 13.284 16.4689C12.833 17.6852 12.6798 18.6566 12.6798 20.2492V21.5444L12.4926 21.4831C12.1267 21.3694 11.6926 21.1068 11.4118 20.8443L11.1395 20.5818L11.0629 20.8006C10.9523 21.0981 10.9608 21.2381 11.1055 21.7369C11.4118 22.7695 11.965 23.5921 12.7989 24.2309L13.318 24.6247L13.0032 24.5722C12.5011 24.4934 12.0926 24.2484 11.5139 23.6884C10.5183 22.7345 10.1864 21.9032 10.1779 20.3718C10.1779 19.6367 10.1523 19.3479 10.0758 19.3479C9.82045 19.3479 9.90555 18.5078 10.2204 17.9653C10.3055 17.8078 10.3821 17.659 10.3821 17.6415C10.3821 17.624 10.1609 17.5977 9.89704 17.5802C9.44602 17.554 9.40347 17.5365 9.37794 17.3352C9.36092 17.2127 9.41198 17.0377 9.48005 16.9414C9.58217 16.7926 9.68429 16.7664 10.2119 16.7926C10.7821 16.8101 10.8757 16.7839 11.599 16.4339C12.033 16.2238 12.6117 15.9088 12.8925 15.7338C13.3946 15.4188 13.6159 15.34 13.6159 15.48ZM6.15266 16.5301C7.19088 17.379 8.33121 17.8603 9.28433 17.8603C9.55664 17.8603 9.78641 17.8953 9.78641 17.9303C9.78641 17.9653 9.70982 18.2453 9.6077 18.5428L9.429 19.0854H8.93542C8.34823 19.0854 7.49723 18.8316 6.68028 18.4116C5.99097 18.0528 5.23359 17.5715 4.96978 17.3177L4.78256 17.1514L4.95276 16.4776C5.19104 15.48 5.17402 15.5063 5.4123 15.8213C5.52293 15.9701 5.85481 16.2938 6.15266 16.5301ZM38.4309 19.1554C37.6395 19.5229 37.5629 19.2254 38.2777 18.5516L38.7628 18.0965L38.8054 18.5253L38.8479 18.9541L38.4309 19.1554ZM37.0778 19.6542C37.0949 19.7067 36.814 19.7942 36.4566 19.8555C35.4014 20.0217 34.7206 20.5555 34.7206 21.2031C34.7206 21.5269 35.0355 21.9294 35.1971 21.8157C35.2482 21.7807 35.3758 21.5881 35.478 21.3869C35.8354 20.6518 36.3119 20.2317 36.9162 20.0917C37.1714 20.0392 37.197 20.0567 37.3246 20.363C37.4438 20.6605 37.4438 20.6955 37.3161 20.7656C37.0098 20.9493 36.5758 21.4044 36.4141 21.7194C36.2013 22.1569 36.2098 22.6382 36.4481 23.1108C36.7204 23.6708 36.814 23.6446 36.8651 22.997C36.8906 22.6995 36.9757 22.3145 37.0608 22.1482C37.2225 21.8157 37.6055 21.3606 37.7161 21.3606C37.8608 21.3606 37.7842 22.227 37.6055 22.542C37.4438 22.822 37.4353 22.892 37.5289 23.2683C37.631 23.6971 37.8693 24.1609 38.1416 24.4759C38.3033 24.6685 38.3033 24.6772 37.9714 25.7011C37.7842 26.2786 37.4523 27.145 37.231 27.6263C36.8481 28.4838 36.8225 28.5188 36.5247 28.5713C35.929 28.6676 33.9292 28.6239 33.0356 28.4838C32.3038 28.3788 32.125 28.3701 32.074 28.4663C31.9378 28.6851 31.9889 29.7002 32.1591 30.024C32.3718 30.4353 33.0441 30.7853 33.8951 30.9166L34.5504 31.0216V31.4766C34.5504 31.7917 34.4993 31.9929 34.3887 32.133L34.2355 32.3342L34.1759 32.1417C34.0994 31.9054 34.0738 31.9054 33.6568 32.1242C33.4696 32.2205 33.2143 32.2992 33.0867 32.2992C32.8229 32.2992 32.7973 32.3692 32.959 32.5968C33.0441 32.7193 33.1633 32.7455 33.4696 32.728C33.8355 32.693 33.8526 32.7018 33.7164 32.833C33.5207 33.0256 32.8058 33.2618 32.4059 33.2618C31.8187 33.2618 31.8953 33.7519 32.491 33.8044L32.8058 33.8394L32.5761 33.9444C31.8272 34.2769 30.0146 34.2332 29.0615 33.8656C27.0276 33.0868 25.4788 30.5753 25.6405 28.3263C25.7936 26.2786 26.8574 24.3272 28.6445 22.8483C30.3124 21.4744 32.8144 20.3455 35.5716 19.7417C36.5758 19.5229 37.0268 19.4967 37.0778 19.6542ZM38.8734 19.9342C38.8479 20.2317 38.8224 20.2668 38.5501 20.3193C38.2267 20.3893 38.1246 20.3105 38.1246 19.9955C38.1246 19.8642 38.2012 19.7855 38.4054 19.7154C38.8734 19.5667 38.899 19.5842 38.8734 19.9342ZM4.2209 20.0305C4.26345 20.0655 4.34855 20.643 4.40812 21.3169C4.46769 22.1044 4.57832 22.822 4.72299 23.3296C5.88034 27.5037 9.59068 30.024 14.5775 30.024H15.4966L15.4711 30.2603L15.4455 30.5053L14.2541 30.4878C9.43751 30.4353 5.8463 28.2301 4.4762 24.4759C4.15282 23.6008 3.90603 22.297 3.85497 21.1593C3.81242 20.3193 3.82944 20.1005 3.92305 20.0392C4.06772 19.943 4.10176 19.943 4.2209 20.0305ZM27.3425 23.2246C26.1681 24.4847 25.4532 25.7886 25.0533 27.3812C24.4916 29.604 24.9852 31.7217 26.3978 33.2006L26.968 33.7956L26.2957 33.7344L25.632 33.6819L25.2745 34.0144L24.9256 34.3557L23.2917 33.5244C22.3897 33.0693 21.2919 32.5618 20.8494 32.3955C20.4068 32.2292 19.9388 31.9929 19.8026 31.8704C19.1899 31.2929 18.5432 29.9102 18.4155 28.9039L18.3559 28.4401L19.1559 28.9826C20.3132 29.7615 21.2238 30.199 21.6918 30.199L22.0833 30.1903L22.3216 29.639C22.7301 28.7114 23.7853 26.9437 24.6108 25.8061C25.5043 24.5897 27.351 22.6207 27.6658 22.5595C27.7765 22.542 27.9041 22.5157 27.9467 22.507C27.9892 22.507 27.7169 22.822 27.3425 23.2246ZM16.6284 27.8275C16.4582 28.2213 16.3306 28.5451 16.3476 28.5626C16.9943 28.9651 17.8624 29.6215 17.8283 29.674C17.8028 29.7177 17.4964 29.919 17.1475 30.1203C16.7986 30.3303 16.5093 30.5228 16.5093 30.5491C16.5093 30.5841 16.5859 30.6803 16.688 30.7766C16.7901 30.8641 16.9178 31.0479 16.9858 31.1791C17.105 31.4154 17.105 31.4241 16.8667 31.4241C16.6199 31.4241 16.2795 31.1266 16.0923 30.7416C15.9987 30.5666 16.0327 30.4965 16.4412 30.059L16.8922 29.569L16.6369 29.3852C16.1348 29.0089 15.8285 28.6939 15.8285 28.5451C15.8285 28.2301 16.8497 26.8212 16.9178 27.0399C16.9348 27.0837 16.7986 27.4425 16.6284 27.8275ZM34.9078 29.1839C35.7418 29.1839 36.4226 29.2102 36.4226 29.2277C36.4226 29.2889 35.3163 30.9778 35.2397 31.0216C35.1971 31.0479 35.1206 30.9603 35.061 30.8203C34.9418 30.5228 34.6951 30.409 34.0143 30.339C33.4866 30.2778 32.9846 30.1028 32.7548 29.884C32.6016 29.744 32.4654 29.2014 32.542 29.0701C32.5676 29.0264 32.7718 29.0351 32.9931 29.0789C33.2228 29.1314 34.0823 29.1752 34.9078 29.1839ZM17.7943 32.2117C19.4452 32.4042 21.0451 32.9818 23.3853 34.2332L24.8661 35.0208L25.3256 34.662C25.5809 34.4695 25.8447 34.2857 25.9128 34.2594C25.9809 34.2332 26.3383 34.3819 26.6957 34.6007C27.836 35.2745 28.9508 35.8171 29.0785 35.7558C29.1806 35.7208 29.1976 35.6246 29.1551 35.3095L29.104 34.907L29.3848 34.9595C29.5295 34.9945 29.9976 35.0383 30.4145 35.0733L31.1719 35.1258L30.3635 35.6596C29.3934 36.2984 28.0913 36.981 26.985 37.4185C26.2106 37.7248 26.1766 37.7335 26.0319 37.576C25.9468 37.4885 25.8021 37.1997 25.7085 36.9372C25.5639 36.5172 25.5383 36.4909 25.5383 36.7272C25.5298 36.8759 25.5894 37.191 25.6575 37.4273C25.7256 37.6635 25.7851 37.8648 25.7851 37.8735C25.7851 37.9261 23.4364 38.4511 22.679 38.5649C21.3855 38.7661 18.7474 38.7661 17.4113 38.5649C15.42 38.2673 13.3691 37.6285 11.6161 36.7534C10.7055 36.2984 9.36092 35.4758 9.36092 35.3795C9.36092 35.3008 10.7906 34.2594 11.4629 33.8394C12.833 32.9993 14.4414 32.3867 15.7008 32.2205C16.5433 32.1155 16.9518 32.1155 17.7943 32.2117Z" fill="#333333"/>
<path d="M11.0885 11.0871C11.0204 11.2708 11.6587 11.9359 12.2118 12.2684C12.4501 12.4085 12.6629 12.5222 12.7054 12.5222C12.7394 12.5222 12.4927 12.1722 12.1523 11.7434C11.531 10.9558 11.2162 10.7633 11.0885 11.0871Z" fill="#333333"/>
<path d="M25.8277 16.9239C25.5043 17.0464 25.3086 17.1689 25.2915 17.2739C25.249 17.5102 25.5043 17.5452 26.0489 17.3789C26.6361 17.1952 26.7978 17.0464 26.6361 16.8539C26.5 16.6876 26.4489 16.6964 25.8277 16.9239Z" fill="#333333"/>
<path d="M15.0711 17.1514C14.935 17.3965 14.952 17.554 15.1307 17.7115C15.3434 17.904 15.5136 17.8953 15.7009 17.6852C15.8285 17.5452 15.8455 17.4577 15.7774 17.2652C15.6753 16.9589 15.2073 16.8802 15.0711 17.1514Z" fill="#333333"/>
<path d="M20.2111 17.3002C20.0494 17.4752 20.075 17.8515 20.2622 17.974C20.4664 18.1053 20.8239 17.9827 20.8749 17.7552C20.943 17.5102 20.7302 17.1602 20.509 17.1602C20.4239 17.1602 20.2877 17.2214 20.2111 17.3002Z" fill="#333333"/>
<path d="M26.4659 17.6679C26.2361 17.7641 26.0744 17.8867 26.0574 17.9829C25.9978 18.2717 26.168 18.333 26.6105 18.1667C27.1126 17.9742 27.2573 17.8517 27.1807 17.6591C27.1126 17.4754 26.9594 17.4754 26.4659 17.6679Z" fill="#333333"/>
<path d="M16.4072 18.8667C16.1179 19.0329 15.7945 19.733 15.803 20.1618C15.8371 20.8444 16.2285 21.1507 17.0029 21.0719C17.505 21.0194 17.7007 20.8969 17.7007 20.6519C17.7007 20.5031 17.6327 20.4856 17.1646 20.4856C16.8583 20.4856 16.5859 20.4418 16.5264 20.3806C16.3221 20.1706 16.4753 19.5405 16.7987 19.2692C16.8753 19.1992 16.9348 19.0592 16.9348 18.9454C16.9348 18.7004 16.7561 18.6742 16.4072 18.8667Z" fill="#333333"/>
<path d="M5.10597 16.8015C4.99535 17.0203 5.07193 17.2215 5.28468 17.2915C5.60806 17.3965 5.83783 16.9852 5.59955 16.7402C5.44637 16.5827 5.20809 16.6177 5.10597 16.8015Z" fill="#333333"/>
<path d="M29.1891 24.6861C29.121 24.7298 29.0189 24.8961 28.9679 25.0536C28.9168 25.2111 28.8147 25.3511 28.7381 25.3686C28.5764 25.4037 28.5509 25.2024 28.6785 24.9399C28.7466 24.8086 28.7381 24.7561 28.6445 24.7211C28.4488 24.6423 28.1679 24.8523 28.1169 25.1061C28.0828 25.2986 27.9467 25.4124 27.5127 25.6399C26.8148 26.0162 26.534 26.4188 26.534 27.0226C26.5425 27.7839 26.7893 28.2127 27.3084 28.3615C27.7935 28.5015 27.8275 28.5452 27.8786 29.2628L27.9382 29.9366H27.6829C27.4191 29.9366 27.0531 29.7003 26.7723 29.3416C26.6787 29.219 26.5851 29.1665 26.534 29.219C26.4319 29.324 26.5936 30.3392 26.7638 30.6017C26.8999 30.8205 27.351 30.9867 27.8105 30.9867C28.0233 30.9867 28.1084 31.0305 28.1594 31.1967C28.2956 31.5643 28.7636 31.573 28.6955 31.2055C28.6445 30.9167 28.8147 30.9255 29.0785 31.2142C29.3168 31.4768 29.5806 31.4593 29.555 31.1792C29.538 31.013 29.5721 30.9867 29.8103 30.9867C30.1422 30.9867 30.389 30.7504 30.5933 30.2691C30.789 29.7703 30.755 29.2365 30.4826 28.7027C30.2954 28.3264 30.1593 28.1952 29.7167 27.9414C29.1466 27.6176 29.1125 27.5564 29.2402 26.7688L29.2912 26.445L29.7082 26.6638C29.938 26.7775 30.1763 26.9526 30.2273 27.0488C30.4146 27.3463 30.4656 27.2413 30.4571 26.585C30.4401 25.5962 30.406 25.5349 29.8784 25.4474C29.4444 25.3686 29.4274 25.3599 29.4785 25.1411C29.5806 24.7123 29.5721 24.6511 29.4444 24.6248C29.3763 24.6073 29.2572 24.6336 29.1891 24.6861ZM28.7041 26.9351C28.6445 27.5214 28.6445 27.5214 28.4658 27.4601C28.219 27.3551 28.3296 26.4363 28.5934 26.4363C28.7296 26.4363 28.7466 26.4975 28.7041 26.9351ZM27.802 27.0663C27.7765 27.2413 27.768 27.2501 27.7084 27.1101C27.6658 27.0313 27.6658 26.8563 27.7084 26.7163C27.768 26.4975 27.7765 26.4888 27.802 26.6725C27.8275 26.7863 27.8275 26.9613 27.802 27.0663ZM28.7211 28.904C28.7381 28.9653 28.7636 29.2278 28.7892 29.4728C28.8232 29.9104 28.8147 29.9366 28.6275 29.9366C28.4488 29.9366 28.4232 29.8929 28.4232 29.6391C28.4232 29.4816 28.3977 29.219 28.3722 29.0703C28.3211 28.834 28.3381 28.799 28.4998 28.799C28.6019 28.799 28.6955 28.8515 28.7211 28.904ZM29.5806 29.2803C29.6997 29.4641 29.7082 29.5516 29.6316 29.7178C29.4614 30.1029 29.2742 29.9891 29.2742 29.4991C29.2742 29.0178 29.3678 28.9478 29.5806 29.2803Z" fill="#333333"/>
<path d="M36.2949 27.5475C36.2694 27.7313 36.1843 27.9675 36.1247 28.0638C35.9885 28.2738 36.0311 28.3613 36.2609 28.3613C36.5842 28.3613 36.8395 27.39 36.5417 27.2762C36.4651 27.25 36.397 27.2237 36.38 27.2237C36.3715 27.2237 36.3289 27.3725 36.2949 27.5475Z" fill="#333333"/>
<path d="M32.1336 31.6604C31.8528 31.7829 31.4273 31.8967 31.172 31.9229C30.772 31.9667 30.7209 31.9929 30.7209 32.1767C30.7209 32.3167 30.7805 32.3867 30.9592 32.4217C31.2656 32.4917 31.9974 32.343 32.4229 32.1242C32.7038 31.9754 32.7633 31.9054 32.7633 31.6867C32.7633 31.3804 32.7804 31.3804 32.1336 31.6604Z" fill="#333333"/>
<path d="M29.0955 32.7018C28.8487 33.0081 29.4104 33.3319 30.2273 33.3406C30.772 33.3494 31.0613 33.2269 31.0613 32.9818C31.0613 32.7893 31.0358 32.7806 30.3209 32.7806C29.904 32.7806 29.4955 32.7281 29.3934 32.6668C29.2402 32.5881 29.1891 32.5881 29.0955 32.7018Z" fill="#333333"/>
<path d="M22.5512 30.5842C22.313 30.8905 22.6449 31.398 22.9597 31.1968C23.2576 31.0042 23.1469 30.4617 22.8065 30.4617C22.7214 30.4617 22.6108 30.523 22.5512 30.5842Z" fill="#333333"/>
<path d="M23.5896 31.7042C23.445 31.853 23.462 32.0893 23.6237 32.2468C23.8109 32.4481 23.9726 32.4218 24.1258 32.1768C24.2364 32.0105 24.2449 31.923 24.1683 31.783C24.0662 31.5817 23.7513 31.538 23.5896 31.7042Z" fill="#333333"/>
<path d="M24.5939 32.6843C24.3556 32.9906 24.6875 33.4981 25.0023 33.2969C25.3002 33.1043 25.1896 32.5618 24.8492 32.5618C24.7641 32.5618 24.6534 32.623 24.5939 32.6843Z" fill="#333333"/>
</g>
<path d="M53.404 12.256H57.562C58.294 12.256 58.954 12.322 59.542 12.454C60.13 12.586 60.634 12.802 61.054 13.102C61.474 13.402 61.798 13.786 62.026 14.254C62.254 14.722 62.368 15.286 62.368 15.946C62.368 16.654 62.236 17.248 61.972 17.728C61.708 18.208 61.348 18.598 60.892 18.898C60.448 19.186 59.926 19.396 59.326 19.528C58.726 19.66 58.09 19.726 57.418 19.726H55.672V25H53.404V12.256ZM57.256 17.818C57.628 17.818 57.982 17.794 58.318 17.746C58.654 17.686 58.954 17.59 59.218 17.458C59.482 17.314 59.692 17.122 59.848 16.882C60.004 16.642 60.082 16.33 60.082 15.946C60.082 15.574 60.004 15.274 59.848 15.046C59.692 14.806 59.482 14.62 59.218 14.488C58.966 14.356 58.672 14.272 58.336 14.236C58.012 14.188 57.676 14.164 57.328 14.164H55.672V17.818H57.256ZM67.3141 12.256H69.2761L74.7661 25H72.1741L70.9861 22.084H65.4601L64.3081 25H61.7701L67.3141 12.256ZM70.1941 20.14L68.2321 14.956L66.2341 20.14H70.1941ZM78.0328 19.474L73.2448 12.256H76.0168L79.2208 17.62L82.4608 12.256H85.0888L80.3008 19.474V25H78.0328V19.474ZM86.152 12.256H90.31C91.042 12.256 91.702 12.322 92.29 12.454C92.878 12.586 93.382 12.802 93.802 13.102C94.222 13.402 94.546 13.786 94.774 14.254C95.002 14.722 95.116 15.286 95.116 15.946C95.116 16.654 94.984 17.248 94.72 17.728C94.456 18.208 94.096 18.598 93.64 18.898C93.196 19.186 92.674 19.396 92.074 19.528C91.474 19.66 90.838 19.726 90.166 19.726H88.42V25H86.152V12.256ZM90.004 17.818C90.376 17.818 90.73 17.794 91.066 17.746C91.402 17.686 91.702 17.59 91.966 17.458C92.23 17.314 92.44 17.122 92.596 16.882C92.752 16.642 92.83 16.33 92.83 15.946C92.83 15.574 92.752 15.274 92.596 15.046C92.44 14.806 92.23 14.62 91.966 14.488C91.714 14.356 91.42 14.272 91.084 14.236C90.76 14.188 90.424 14.164 90.076 14.164H88.42V17.818H90.004ZM100.062 12.256H102.024L107.514 25H104.922L103.734 22.084H98.2081L97.0561 25H94.5181L100.062 12.256ZM102.942 20.14L100.98 14.956L98.9821 20.14H102.942ZM108.775 12.256H111.043V22.984H116.461V25H108.775V12.256ZM119.5 19.474L114.712 12.256H117.484L120.688 17.62L123.928 12.256H126.556L121.768 19.474V25H119.5V19.474ZM136.307 15.244C135.971 14.788 135.533 14.458 134.993 14.254C134.453 14.038 133.925 13.93 133.409 13.93C132.749 13.93 132.149 14.05 131.609 14.29C131.069 14.53 130.601 14.86 130.205 15.28C129.821 15.7 129.521 16.192 129.305 16.756C129.101 17.32 128.999 17.932 128.999 18.592C128.999 19.288 129.101 19.924 129.305 20.5C129.509 21.076 129.797 21.574 130.169 21.994C130.553 22.402 131.009 22.72 131.537 22.948C132.065 23.176 132.659 23.29 133.319 23.29C134.003 23.29 134.609 23.158 135.137 22.894C135.665 22.618 136.091 22.258 136.415 21.814L138.233 23.092C137.669 23.8 136.979 24.352 136.163 24.748C135.347 25.132 134.393 25.324 133.301 25.324C132.305 25.324 131.387 25.162 130.547 24.838C129.719 24.502 129.005 24.04 128.405 23.452C127.805 22.852 127.337 22.144 127.001 21.328C126.665 20.5 126.497 19.588 126.497 18.592C126.497 17.572 126.671 16.654 127.019 15.838C127.379 15.01 127.865 14.308 128.477 13.732C129.101 13.156 129.833 12.712 130.673 12.4C131.513 12.088 132.425 11.932 133.409 11.932C133.817 11.932 134.243 11.974 134.687 12.058C135.131 12.13 135.557 12.25 135.965 12.418C136.373 12.574 136.757 12.772 137.117 13.012C137.477 13.252 137.783 13.54 138.035 13.876L136.307 15.244ZM139.642 12.256H141.91V17.404H147.868V12.256H150.136V25H147.868V19.348H141.91V25H139.642V12.256Z" fill="#333333"/>
<defs>
<clipPath id="clip0_8_36">
<rect width="40" height="40" fill="white"/>
</clipPath>
</defs>
</svg>
