<?xml version="1.0" encoding="UTF-8" standalone="no"?>
<svg
   xmlns:dc="http://purl.org/dc/elements/1.1/"
   xmlns:cc="http://creativecommons.org/ns#"
   xmlns:rdf="http://www.w3.org/1999/02/22-rdf-syntax-ns#"
   xmlns:svg="http://www.w3.org/2000/svg"
   xmlns="http://www.w3.org/2000/svg"
   xmlns:sodipodi="http://sodipodi.sourceforge.net/DTD/sodipodi-0.dtd"
   xmlns:inkscape="http://www.inkscape.org/namespaces/inkscape"
   width="239"
   height="120"
   fill="none"
   version="1.1"
   id="svg102"
   sodipodi:docname="logo-black.svg"
   inkscape:version="0.92.3 (2405546, 2018-03-11)">
  <metadata
     id="metadata108">
    <rdf:RDF>
      <cc:Work
         rdf:about="">
        <dc:format>image/svg+xml</dc:format>
        <dc:type
           rdf:resource="http://purl.org/dc/dcmitype/StillImage" />
      </cc:Work>
    </rdf:RDF>
  </metadata>
  <defs
     id="defs106" />
  <sodipodi:namedview
     pagecolor="#ffffff"
     bordercolor="#666666"
     borderopacity="1"
     objecttolerance="10"
     gridtolerance="10"
     guidetolerance="10"
     inkscape:pageopacity="0"
     inkscape:pageshadow="2"
     inkscape:window-width="1366"
     inkscape:window-height="705"
     id="namedview104"
     showgrid="false"
     inkscape:zoom="3.5606695"
     inkscape:cx="119.5"
     inkscape:cy="60"
     inkscape:window-x="-8"
     inkscape:window-y="-8"
     inkscape:window-maximized="1"
     inkscape:current-layer="svg102" />
  <path
     d="m 206.66462,34.253692 v 29.338 h -10.476 v -20.58 h -10.087 v 20.58 h -10.476 v -29.34 h 31.039 z"
     id="path60"
     inkscape:connector-curvature="0"
     style="fill:#000000" />
  <path
     d="m 154.11062,64.640692 c 9.378,0 16.342,-5.75 16.342,-14.467 0,-8.437 -5.138,-13.915 -13.725,-13.915 -3.963,0 -7.233,1.395 -9.696,3.802 0.588,-4.975 4.795,-8.607 9.427,-8.607 1.069,0 9.117,-0.017 9.117,-0.017 l 4.551,-8.709 c 0,0 -10.104,0.23 -14.801,0.23 -10.732,0.187 -17.981,9.942 -17.981,21.79 0,13.803 7.07,19.893 16.766,19.893 z m 0.057,-20.668 c 3.482,0 5.896,2.288 5.896,6.2 0,3.521 -2.145,6.422 -5.896,6.43 -3.588,0 -6.002,-2.688 -6.002,-6.37 0,-3.913 2.414,-6.26 6.002,-6.26 z"
     id="path62"
     inkscape:connector-curvature="0"
     style="clip-rule:evenodd;fill:#000000;fill-rule:evenodd" />
  <path
     d="m 128.81762,53.769692 c 0,0 -2.474,1.426 -6.169,1.696 -4.248,0.126 -8.033,-2.557 -8.033,-7.324 0,-4.65 3.34,-7.315 7.926,-7.315 2.812,0 6.532,1.949 6.532,1.949 0,0 2.722,-4.995 4.132,-7.493 -2.582,-1.957 -6.021,-3.03 -10.021,-3.03 -10.095,0 -17.914,6.582 -17.914,15.83 0,9.366 7.349,15.795 17.914,15.601 2.953,-0.11 7.027,-1.147 9.51,-2.742 z"
     id="path64"
     inkscape:connector-curvature="0"
     style="fill:#000000" />
  <path
     d="M0 26.12l14.532 25.975v15.844L.017 93.863 0 26.12z"
     fill="#5B57A2"
     id="path66" />
  <path
     d="M55.797 42.643l13.617-8.346 27.868-.026-41.485 25.414V42.643z"
     fill="#D90751"
     id="path68" />
  <path
     d="M55.72 25.967l.077 34.39-14.566-8.95V0l14.49 25.967z"
     fill="#FAB718"
     id="path70" />
  <path
     d="M97.282 34.271l-27.869.026-13.693-8.33L41.231 0l56.05 34.271z"
     fill="#ED6F26"
     id="path72" />
  <path
     d="M55.797 94.007V77.322l-14.566-8.78.008 51.458 14.558-25.993z"
     fill="#63B22F"
     id="path74" />
  <path
     d="M69.38 85.737L14.531 52.095 0 26.12l97.223 59.583-27.844.034z"
     fill="#1487C9"
     id="path76" />
  <path
     d="M41.24 120l14.556-25.993 13.583-8.27 27.843-.034L41.24 120z"
     fill="#017F36"
     id="path78" />
  <path
     d="M.017 93.863l41.333-25.32-13.896-8.526-12.922 7.922L.017 93.863z"
     fill="#984995"
     id="path80" />
  <path
     d="m 114.61862,83.336692 c -0.32,0.408 -0.741,0.716 -1.246,0.924 a 4.282,4.282 0 0 1 -1.632,0.316 4.63,4.63 0 0 1 -1.633,-0.274 3.623,3.623 0 0 1 -1.262,-0.782 3.539,3.539 0 0 1 -0.824,-1.224 4.173,4.173 0 0 1 -0.295,-1.589 c 0,-0.54 0.093,-1.04 0.286,-1.514 0.185,-0.475 0.454,-0.882 0.791,-1.224 0.337,-0.349 0.741,-0.615 1.195,-0.823 0.463,-0.2 0.968,-0.308 1.523,-0.308 0.598,0 1.153,0.075 1.658,0.224 0.505,0.15 0.934,0.4 1.287,0.75 l -0.614,1.04 a 2.886,2.886 0 0 0 -1.027,-0.6 3.612,3.612 0 0 0 -1.119,-0.174 c -0.336,0 -0.656,0.066 -0.967,0.191 a 2.591,2.591 0 0 0 -0.825,0.533 2.438,2.438 0 0 0 -0.564,0.832 c -0.143,0.324 -0.21,0.682 -0.21,1.081 0,0.408 0.075,0.774 0.218,1.09 0.144,0.325 0.337,0.6 0.581,0.832 0.244,0.234 0.53,0.408 0.858,0.525 0.329,0.125 0.674,0.183 1.044,0.183 0.454,0 0.867,-0.092 1.22,-0.267 a 3.05,3.05 0 0 0 0.926,-0.69 z m 1.733,1.065 v -7.405 h 1.33 v 5.517 l 4.325,-5.517 h 1.33 v 7.406 h -1.33 v -5.517 l -4.325,5.517 h -1.33 z m 15.795,-1.065 a 3.01,3.01 0 0 1 -1.245,0.924 4.291,4.291 0 0 1 -1.633,0.316 4.628,4.628 0 0 1 -1.632,-0.274 3.627,3.627 0 0 1 -1.263,-0.782 3.539,3.539 0 0 1 -0.824,-1.224 4.173,4.173 0 0 1 -0.295,-1.589 c 0,-0.54 0.093,-1.04 0.286,-1.514 0.186,-0.475 0.455,-0.882 0.791,-1.224 0.337,-0.349 0.741,-0.615 1.195,-0.823 a 3.637,3.637 0 0 1 1.523,-0.308 c 0.598,0 1.153,0.075 1.658,0.224 0.505,0.15 0.934,0.4 1.288,0.75 l -0.615,1.04 a 2.874,2.874 0 0 0 -1.026,-0.6 3.616,3.616 0 0 0 -1.119,-0.174 2.603,2.603 0 0 0 -1.793,0.724 2.536,2.536 0 0 0 -0.564,0.832 c -0.143,0.324 -0.21,0.682 -0.21,1.081 0,0.408 0.076,0.774 0.219,1.09 0.143,0.325 0.336,0.6 0.58,0.832 0.244,0.234 0.531,0.408 0.859,0.525 0.328,0.116 0.673,0.183 1.043,0.183 0.455,0 0.859,-0.092 1.22,-0.267 a 3.05,3.05 0 0 0 0.926,-0.69 z m 0.682,-6.34 h 6.824 v 1.315 h -2.743 v 6.09 h -1.33 v -6.09 h -2.743 v -1.315 z"
     id="path82"
     inkscape:connector-curvature="0"
     style="fill:#000000" />
  <path
     d="m 145.86362,84.327692 c 0.505,-0.158 0.934,-0.4 1.304,-0.732 l -0.404,-1.032 c -0.244,0.217 -0.572,0.4 -0.967,0.55 -0.396,0.15 -0.842,0.224 -1.33,0.224 -0.732,0 -1.338,-0.191 -1.818,-0.582 -0.479,-0.392 -0.74,-0.94 -0.799,-1.64 h 5.756 c 0.059,-0.258 0.084,-0.549 0.084,-0.89 0,-0.508 -0.093,-0.965 -0.278,-1.381 a 3.277,3.277 0 0 0 -0.74,-1.074 3.295,3.295 0 0 0 -1.111,-0.69 3.692,3.692 0 0 0 -1.355,-0.25 c -0.623,0 -1.17,0.108 -1.649,0.308 a 3.637,3.637 0 0 0 -1.204,0.824 3.477,3.477 0 0 0 -0.748,1.223 4.272,4.272 0 0 0 -0.261,1.514 c 0,0.583 0.101,1.115 0.286,1.59 a 3.5,3.5 0 0 0 0.808,1.223 c 0.345,0.34 0.765,0.599 1.262,0.782 a 4.772,4.772 0 0 0 1.658,0.274 5.04,5.04 0 0 0 1.506,-0.24 z m -3.366,-5.7 c 0.412,-0.374 0.959,-0.557 1.649,-0.557 0.648,0 1.17,0.175 1.549,0.525 0.379,0.349 0.58,0.832 0.614,1.447 h -4.544 a 2.26,2.26 0 0 1 0.732,-1.414 z"
     id="path84"
     inkscape:connector-curvature="0"
     style="clip-rule:evenodd;fill:#000000;fill-rule:evenodd" />
  <path
     d="m 149.49862,76.996692 h 1.212 l 2.878,3.67 2.726,-3.67 h 1.178 v 7.406 h -1.329 v -5.4 l -2.592,3.436 h -0.051 l -2.692,-3.437 v 5.4 h -1.33 z"
     id="path86"
     inkscape:connector-curvature="0"
     style="fill:#000000" />
  <path
     d="m 161.11062,77.021692 a 4.187,4.187 0 0 0 -1.144,0.49 l 0.353,1.05 c 0.303,-0.15 0.606,-0.275 0.909,-0.383 0.303,-0.109 0.69,-0.159 1.153,-0.159 0.37,0 0.665,0.059 0.892,0.175 0.227,0.108 0.395,0.275 0.513,0.475 0.118,0.2 0.194,0.449 0.236,0.74 0.042,0.291 0.059,0.607 0.059,0.949 a 2.28,2.28 0 0 0 -0.909,-0.375 5.229,5.229 0 0 0 -0.959,-0.1 c -0.396,0 -0.766,0.059 -1.12,0.158 -0.353,0.1 -0.656,0.25 -0.9,0.45 a 2.14,2.14 0 0 0 -0.589,0.74 2.3,2.3 0 0 0 -0.219,1.007 c 0,0.724 0.211,1.29 0.631,1.69 0.421,0.399 0.976,0.598 1.666,0.598 0.623,0 1.12,-0.108 1.498,-0.324 0.379,-0.217 0.682,-0.466 0.901,-0.749 v 0.957 h 1.245 v -4.543 c 0,-0.966 -0.21,-1.714 -0.639,-2.239 -0.421,-0.524 -1.17,-0.79 -2.23,-0.79 -0.472,0 -0.918,0.066 -1.347,0.183 z m 2.223,6 c -0.303,0.216 -0.699,0.315 -1.187,0.315 -0.429,0 -0.766,-0.108 -1.001,-0.316 -0.236,-0.216 -0.354,-0.499 -0.354,-0.849 0,-0.207 0.042,-0.382 0.135,-0.54 0.093,-0.158 0.219,-0.283 0.362,-0.383 a 1.6,1.6 0 0 1 0.513,-0.225 c 0.194,-0.05 0.387,-0.075 0.589,-0.075 0.657,0 1.22,0.158 1.683,0.491 v 0.94 a 3.824,3.824 0 0 1 -0.74,0.641 z m 13.733,-8.63 c 0.269,-0.124 0.521,-0.332 0.757,-0.64 l -0.724,-1.04 c -0.185,0.25 -0.395,0.424 -0.631,0.516 a 4.007,4.007 0 0 1 -0.774,0.216 l -0.252,0.045 c -0.219,0.038 -0.454,0.08 -0.707,0.122 a 5.224,5.224 0 0 0 -1.178,0.366 c -0.598,0.258 -1.077,0.607 -1.439,1.048 -0.362,0.441 -0.648,0.94 -0.842,1.49 a 7.793,7.793 0 0 0 -0.395,1.722 c -0.068,0.6 -0.101,1.173 -0.101,1.722 0,0.708 0.092,1.348 0.277,1.922 0.186,0.575 0.446,1.057 0.791,1.448 0.345,0.4 0.758,0.7 1.246,0.916 0.488,0.216 1.035,0.324 1.649,0.324 0.564,0 1.086,-0.108 1.557,-0.308 a 3.758,3.758 0 0 0 1.212,-0.823 c 0.336,-0.342 0.606,-0.75 0.791,-1.207 0.193,-0.458 0.286,-0.949 0.286,-1.465 0,-0.557 -0.084,-1.064 -0.244,-1.514 a 3.271,3.271 0 0 0 -0.69,-1.156 3.072,3.072 0 0 0 -1.103,-0.75 3.827,3.827 0 0 0 -1.447,-0.266 c -0.32,0 -0.631,0.042 -0.934,0.125 a 3.604,3.604 0 0 0 -0.842,0.358 3.2,3.2 0 0 0 -0.698,0.54 c -0.202,0.209 -0.37,0.442 -0.488,0.708 h -0.034 c 0.026,-0.341 0.068,-0.69 0.143,-1.048 0.076,-0.358 0.185,-0.7 0.329,-1.024 0.143,-0.324 0.328,-0.616 0.555,-0.882 a 2.52,2.52 0 0 1 0.875,-0.624 4.646,4.646 0 0 1 1.153,-0.374 l 0.264,-0.048 c 0.263,-0.048 0.514,-0.094 0.754,-0.144 0.32,-0.066 0.614,-0.15 0.884,-0.274 z m -4.679,7.115 a 4.146,4.146 0 0 1 -0.185,-1.298 2.09,2.09 0 0 1 0.303,-0.707 c 0.143,-0.225 0.328,-0.424 0.547,-0.6 a 2.773,2.773 0 0 1 1.733,-0.59 c 0.783,0 1.372,0.241 1.784,0.716 0.413,0.482 0.615,1.081 0.615,1.805 0,0.358 -0.068,0.683 -0.185,0.982 a 2.36,2.36 0 0 1 -1.279,1.323 c -0.303,0.133 -0.632,0.2 -1.002,0.2 -0.37,0 -0.707,-0.075 -1.018,-0.225 a 2.34,2.34 0 0 1 -0.8,-0.624 3.129,3.129 0 0 1 -0.513,-0.982 z m 16.401,-4.51 h -1.33 v 7.406 h 1.33 z m -8.281,0 h 1.33 v 2.222 h 1.229 c 0.58,0 1.051,0.075 1.43,0.216 0.379,0.142 0.682,0.333 0.909,0.566 0.227,0.233 0.387,0.508 0.48,0.815 0.092,0.308 0.143,0.624 0.143,0.957 0,0.333 -0.051,0.65 -0.16,0.966 -0.101,0.316 -0.278,0.59 -0.514,0.84 -0.235,0.25 -0.555,0.45 -0.959,0.6 -0.404,0.149 -0.892,0.232 -1.481,0.232 h -2.415 v -7.414 z m 1.33,3.461 v 2.713 h 0.968 c 0.665,0 1.136,-0.116 1.405,-0.35 0.27,-0.233 0.404,-0.565 0.404,-1.006 0,-0.45 -0.143,-0.79 -0.412,-1.024 -0.278,-0.233 -0.741,-0.35 -1.38,-0.35 h -0.985 z"
     id="path88"
     inkscape:connector-curvature="0"
     style="clip-rule:evenodd;fill:#000000;fill-rule:evenodd" />
  <path
     d="m 197.58262,83.336692 c -0.32,0.408 -0.741,0.716 -1.246,0.924 a 4.286,4.286 0 0 1 -1.632,0.316 4.63,4.63 0 0 1 -1.633,-0.274 3.613,3.613 0 0 1 -1.262,-0.782 3.555,3.555 0 0 1 -0.825,-1.224 4.192,4.192 0 0 1 -0.294,-1.589 c 0,-0.54 0.092,-1.04 0.286,-1.514 0.185,-0.475 0.454,-0.882 0.791,-1.224 0.337,-0.349 0.74,-0.615 1.195,-0.823 a 3.634,3.634 0 0 1 1.523,-0.308 c 0.597,0 1.153,0.075 1.658,0.224 0.505,0.15 0.934,0.4 1.287,0.75 l -0.614,1.04 a 2.886,2.886 0 0 0 -1.027,-0.6 3.612,3.612 0 0 0 -1.119,-0.174 c -0.336,0 -0.656,0.066 -0.968,0.191 a 2.587,2.587 0 0 0 -0.824,0.533 2.52,2.52 0 0 0 -0.564,0.832 c -0.143,0.324 -0.21,0.682 -0.21,1.081 0,0.408 0.075,0.774 0.218,1.09 0.143,0.325 0.337,0.6 0.581,0.832 0.244,0.234 0.53,0.408 0.858,0.525 0.329,0.116 0.674,0.183 1.044,0.183 0.454,0 0.858,-0.092 1.22,-0.267 a 3.05,3.05 0 0 0 0.926,-0.69 z m 0.681,-6.34 h 6.825 v 1.315 h -2.744 v 6.09 h -1.329 v -6.09 h -2.743 v -1.315 z"
     id="path90"
     inkscape:connector-curvature="0"
     style="fill:#000000" />
  <path
     d="m 207.86562,76.997692 h -1.33 v 10.7 h 1.33 v -3.636 c 0.269,0.175 0.589,0.3 0.959,0.383 0.37,0.083 0.757,0.124 1.153,0.124 0.589,0 1.119,-0.108 1.599,-0.307 a 3.825,3.825 0 0 0 1.228,-0.84 c 0.345,-0.359 0.606,-0.775 0.791,-1.266 0.185,-0.49 0.278,-1.015 0.278,-1.572 0,-0.55 -0.084,-1.057 -0.244,-1.515 a 3.524,3.524 0 0 0 -0.69,-1.181 2.996,2.996 0 0 0 -1.086,-0.774 3.49,3.49 0 0 0 -1.439,-0.283 c -0.521,0 -1.009,0.1 -1.472,0.3 -0.463,0.2 -0.825,0.44 -1.077,0.74 z m 0.926,1.373 c 0.379,-0.2 0.791,-0.3 1.237,-0.3 0.387,0 0.732,0.058 1.044,0.183 0.303,0.125 0.555,0.3 0.766,0.533 0.21,0.233 0.37,0.5 0.471,0.815 0.109,0.316 0.16,0.658 0.16,1.032 0,0.4 -0.068,0.757 -0.185,1.09 a 2.4,2.4 0 0 1 -0.514,0.849 2.36,2.36 0 0 1 -0.816,0.557 2.685,2.685 0 0 1 -1.086,0.208 c -0.361,0 -0.698,-0.041 -1.018,-0.124 a 3.328,3.328 0 0 1 -0.984,-0.45 v -3.67 c 0.235,-0.282 0.547,-0.523 0.925,-0.723 z m 15.281,-1.374 h -1.33 v 7.406 h 1.33 z m -8.289,0 h 1.33 v 2.222 h 1.228 c 0.581,0 1.052,0.075 1.431,0.216 0.379,0.142 0.682,0.333 0.909,0.566 0.227,0.233 0.387,0.508 0.479,0.815 0.093,0.308 0.143,0.624 0.143,0.957 0,0.333 -0.05,0.65 -0.159,0.966 -0.101,0.316 -0.278,0.59 -0.514,0.84 -0.235,0.25 -0.555,0.45 -0.959,0.6 -0.404,0.149 -0.892,0.232 -1.481,0.232 h -2.415 v -7.414 z m 1.339,3.461 v 2.713 h 0.968 c 0.664,0 1.136,-0.116 1.405,-0.35 0.269,-0.233 0.404,-0.565 0.404,-1.006 0,-0.45 -0.143,-0.79 -0.412,-1.024 -0.278,-0.233 -0.741,-0.35 -1.38,-0.35 h -0.985 z"
     id="path92"
     inkscape:connector-curvature="0"
     style="clip-rule:evenodd;fill:#000000;fill-rule:evenodd" />
  <path
     d="m 230.45162,80.566692 2.844,3.836 h -1.632 l -2.197,-2.996 -2.23,2.996 h -1.548 l 2.827,-3.77 -2.659,-3.636 h 1.633 l 2.028,2.796 2.061,-2.796 h 1.549 z m -116.817,12.989 h -4.081 v 6.174 h -1.33 v -7.405 h 6.74 v 7.405 h -1.329 z m 8.877,0.083 h -2.625 l -0.085,1.248 c -0.092,1.057 -0.218,1.906 -0.395,2.554 -0.177,0.65 -0.396,1.149 -0.648,1.498 -0.252,0.35 -0.547,0.591 -0.884,0.708 a 3.06,3.06 0 0 1 -1.085,0.183 l -0.101,-1.282 c 0.143,0.008 0.311,-0.025 0.496,-0.108 0.186,-0.083 0.371,-0.266 0.547,-0.54 0.177,-0.284 0.337,-0.683 0.48,-1.199 0.143,-0.524 0.236,-1.206 0.286,-2.064 l 0.135,-2.305 h 5.209 v 7.406 h -1.33 v -6.1 z"
     id="path94"
     inkscape:connector-curvature="0"
     style="fill:#000000" />
  <path
     d="m 127.42662,92.341692 c -0.43,0.116 -0.817,0.282 -1.145,0.49 l 0.354,1.049 c 0.303,-0.15 0.606,-0.275 0.908,-0.383 0.303,-0.108 0.691,-0.158 1.153,-0.158 0.371,0 0.665,0.058 0.892,0.174 0.228,0.109 0.396,0.275 0.514,0.475 0.117,0.2 0.193,0.45 0.235,0.74 0.042,0.292 0.059,0.608 0.059,0.949 a 2.277,2.277 0 0 0 -0.909,-0.374 5.22,5.22 0 0 0 -0.959,-0.1 c -0.395,0 -0.766,0.058 -1.119,0.158 -0.354,0.1 -0.657,0.25 -0.901,0.45 a 2.14,2.14 0 0 0 -0.589,0.74 2.3,2.3 0 0 0 -0.218,1.007 c 0,0.723 0.21,1.29 0.631,1.689 0.42,0.399 0.976,0.599 1.666,0.599 0.623,0 1.119,-0.108 1.498,-0.325 0.378,-0.216 0.681,-0.466 0.9,-0.749 v 0.957 h 1.246 v -4.543 c 0,-0.965 -0.211,-1.714 -0.64,-2.238 -0.421,-0.525 -1.17,-0.79 -2.23,-0.79 a 5.1,5.1 0 0 0 -1.346,0.182 z m 2.23,5.998 c -0.302,0.217 -0.698,0.317 -1.186,0.317 -0.438,0 -0.766,-0.108 -1.001,-0.317 -0.236,-0.216 -0.354,-0.499 -0.354,-0.848 0,-0.208 0.042,-0.383 0.135,-0.541 0.092,-0.158 0.219,-0.283 0.362,-0.383 0.143,-0.1 0.319,-0.175 0.513,-0.225 a 2.33,2.33 0 0 1 0.589,-0.074 c 0.656,0 1.22,0.158 1.683,0.49 v 0.94 a 3.83,3.83 0 0 1 -0.741,0.641 z"
     id="path96"
     inkscape:connector-curvature="0"
     style="clip-rule:evenodd;fill:#000000;fill-rule:evenodd" />
  <path
     d="m 132.94562,92.324692 h 6.825 v 1.314 h -2.744 v 6.091 h -1.329 v -6.09 h -2.743 v -1.315 z"
     id="path98"
     inkscape:connector-curvature="0"
     style="fill:#000000" />
  <path
     d="m 145.98162,99.654692 c 0.505,-0.158 0.934,-0.4 1.304,-0.732 l -0.404,-1.032 c -0.244,0.217 -0.572,0.4 -0.968,0.55 -0.395,0.15 -0.841,0.224 -1.329,0.224 -0.732,0 -1.338,-0.191 -1.818,-0.582 -0.48,-0.391 -0.74,-0.94 -0.799,-1.64 h 5.756 c 0.058,-0.257 0.084,-0.549 0.084,-0.89 0,-0.507 -0.093,-0.965 -0.278,-1.381 a 3.264,3.264 0 0 0 -0.741,-1.073 3.28,3.28 0 0 0 -1.11,-0.691 3.696,3.696 0 0 0 -1.355,-0.25 c -0.623,0 -1.17,0.108 -1.649,0.308 a 3.618,3.618 0 0 0 -1.204,0.824 3.494,3.494 0 0 0 -0.749,1.223 4.294,4.294 0 0 0 -0.261,1.514 c 0,0.583 0.101,1.115 0.286,1.59 0.186,0.474 0.463,0.882 0.808,1.223 0.345,0.341 0.766,0.599 1.263,0.782 a 4.766,4.766 0 0 0 1.657,0.275 c 0.497,0 1.002,-0.084 1.507,-0.242 z m -3.374,-5.708 c 0.412,-0.374 0.959,-0.557 1.649,-0.557 0.657,0 1.17,0.183 1.549,0.524 0.378,0.35 0.58,0.832 0.614,1.448 h -4.544 a 2.26,2.26 0 0 1 0.732,-1.415 z m 5.848,-1.622 h 1.683 l 2.566,3.57 -2.743,3.835 h -1.632 l 2.877,-3.836 -2.751,-3.57 z m 4.577,0 h 1.33 v 7.405 h -1.33 z m 6.084,7.405 -2.928,-3.836 2.735,-3.57 h -1.65 l -2.583,3.57 2.777,3.836 z m 6.076,-0.075 c 0.505,-0.158 0.934,-0.4 1.304,-0.732 l -0.404,-1.032 c -0.244,0.217 -0.572,0.4 -0.967,0.55 -0.396,0.15 -0.842,0.224 -1.33,0.224 -0.732,0 -1.338,-0.191 -1.818,-0.582 -0.479,-0.391 -0.74,-0.94 -0.799,-1.64 h 5.756 c 0.059,-0.257 0.084,-0.549 0.084,-0.89 0,-0.507 -0.092,-0.965 -0.278,-1.381 a 3.276,3.276 0 0 0 -0.74,-1.073 3.284,3.284 0 0 0 -1.111,-0.691 3.692,3.692 0 0 0 -1.355,-0.25 c -0.622,0 -1.169,0.108 -1.649,0.308 a 3.624,3.624 0 0 0 -1.203,0.824 3.465,3.465 0 0 0 -0.749,1.223 4.272,4.272 0 0 0 -0.261,1.514 c 0,0.583 0.101,1.115 0.286,1.59 0.185,0.474 0.463,0.882 0.808,1.223 0.345,0.341 0.765,0.599 1.262,0.782 a 4.772,4.772 0 0 0 1.658,0.275 5.04,5.04 0 0 0 1.506,-0.242 z m -3.374,-5.708 c 0.413,-0.374 0.96,-0.557 1.65,-0.557 0.648,0 1.169,0.183 1.548,0.524 0.379,0.35 0.581,0.832 0.614,1.448 h -4.544 a 2.26,2.26 0 0 1 0.732,-1.415 z m 10.595,-4.11 c -0.783,0 -1.212,-0.433 -1.279,-1.298 h -1.254 c 0,0.332 0.059,0.632 0.168,0.915 0.11,0.283 0.27,0.524 0.48,0.724 0.21,0.2 0.48,0.358 0.791,0.482 0.311,0.125 0.673,0.183 1.085,0.183 0.379,0 0.716,-0.058 1.019,-0.183 0.303,-0.116 0.555,-0.282 0.774,-0.482 0.21,-0.2 0.379,-0.441 0.496,-0.724 0.118,-0.283 0.177,-0.583 0.177,-0.915 h -1.245 c -0.059,0.865 -0.472,1.298 -1.212,1.298 z m -3.594,2.487 v 7.406 h 1.33 l 4.325,-5.517 v 5.517 h 1.33 v -7.406 h -1.33 l -4.325,5.517 v -5.517 z"
     id="path100"
     inkscape:connector-curvature="0"
     style="clip-rule:evenodd;fill:#000000;fill-rule:evenodd" />
</svg>
