<?xml version="1.0" encoding="UTF-8"?>
<svg xmlns="http://www.w3.org/2000/svg" viewBox="0 0 106 55">
<style type="text/css">
	.a{fill:#000000;}
</style>
	<path class="a" d="M12.6145 13.9757C14.7114 10.5311 18.5086 9.53311 18.5086 9.53311C18.5086 9.53311 11.2615 7.62507 11.2615 0C11.2615 7.62507 4.01015 9.53311 4.01015 9.53311C4.01015 9.53311 7.8088 10.5311 9.90702 13.9757H0V27.1818L2.25229 23.0921H6.75548V45.8837L15.7633 55V27.0939C13.4661 26.0222 10.1661 23.2976 8.98397 21.2195C11.0023 21.8361 13.7099 22.647 15.8179 23.0935H22.5201V13.9757H12.6145Z"/>
	<path class="a" fill-rule="evenodd" clip-rule="evenodd" d="M62.7137 26.7386C63.88 25.1377 65.6939 24.2603 67.8705 24.2603H67.8732C72.0679 24.2603 74.997 27.4432 74.997 31.8678C74.997 36.2925 71.9793 39.5024 67.8168 39.5024C65.5917 39.5024 63.8209 38.6682 62.6707 37.0835L62.5955 39.1487H59.4165V18.7234H62.7137V26.7386ZM67.6394 36.7056C70.1923 36.7056 71.9739 34.7564 71.9739 31.9677C71.9739 29.1142 70.3884 27.2002 67.8033 27.2002C65.2182 27.2002 63.4124 29.0899 63.4124 31.9677C63.4124 34.8455 65.0865 36.7056 67.6394 36.7056ZM39.7703 36.2331C38.9534 36.8594 38.3031 37.1024 37.4458 37.1024C36.1829 37.1024 35.4573 36.3303 35.4573 34.9805V27.3622H40.7565V24.4304H35.4573V20.6239H32.1601V24.4277H29.8679L29.1208 27.3595H32.1601V35.0075C32.1601 38.3415 33.9256 40.1773 37.1341 40.1773C38.5987 40.1773 39.9046 39.7237 41.122 38.7897L41.2106 38.7222L39.8993 36.1332L39.7703 36.2304V36.2331ZM49.3986 24.1442C45.1823 24.1442 42.1243 27.3568 42.1243 31.7815C42.1243 36.4383 45.0345 39.4457 49.5356 39.4457C52.1073 39.4457 54.0287 38.6574 55.5765 36.9647L55.6571 36.8784L53.9077 34.7592L53.8029 34.8617C52.5964 36.0469 51.3495 36.576 49.7533 36.576C47.2488 36.576 45.709 35.1965 45.4054 32.6831H56.2376V32.5482C56.2376 32.4132 56.2429 32.2863 56.251 32.1594C56.259 32.0271 56.2644 31.8949 56.2644 31.7545C56.2644 27.1327 53.5691 24.1442 49.3986 24.1442ZM45.4726 30.5126C45.8918 28.4096 47.4074 27.0598 49.3717 27.0598C51.3361 27.0598 52.6636 28.3152 52.9538 30.5126H45.4726ZM83.9455 24.1442C79.7292 24.1442 76.6712 27.3568 76.6712 31.7815C76.6712 36.4383 79.5814 39.4457 84.0825 39.4457C86.6542 39.4457 88.5755 38.6574 90.1234 36.9647L90.204 36.8784L88.4546 34.7592L88.3498 34.8617C87.1432 36.0469 85.8964 36.576 84.3002 36.576C81.7957 36.576 80.2559 35.1965 79.9523 32.6831H90.7844V32.5482C90.7844 32.4132 90.7898 32.2863 90.7979 32.1594C90.8059 32.0271 90.8113 31.8949 90.8113 31.7545C90.8113 27.1327 88.116 24.1442 83.9455 24.1442ZM83.9186 27.0571C85.9125 27.0571 87.2104 28.3125 87.5006 30.51H80.0194C80.4386 28.4069 81.9542 27.0571 83.9186 27.0571ZM105.169 24.4277L100.055 31.4278L105.747 39.1487H101.829L98.1528 33.8791L94.5573 39.1487H90.8328L96.3308 31.6222L91.08 24.4277H94.998L98.2334 29.2222L101.442 24.4277H105.169Z"/>
</svg>