<svg height="26" viewBox="0 0 74 26" width="74" xmlns="http://www.w3.org/2000/svg" xmlns:xlink="http://www.w3.org/1999/xlink"><mask id="a" fill="#fff"><path d="m.47685952.37405238h14.92130718v15.55321432h-14.92130718z" fill="#fff" fill-rule="evenodd"/></mask><mask id="b" fill="#fff"><path d="m0 .00704762h10.7941251v19.44402858h-10.7941251z" fill="#fff" fill-rule="evenodd"/></mask><g fill="none" fill-rule="evenodd"><path d="m10.7064786 6.62264762c-.0405238-2.2385-.90738098-3.35819048-2.60321431-3.35819048-.82809524 0-1.46766667.27485715-1.92135715.82545238-.45369047.55059524-.73207143 1.4597381-.8325 2.72566667h5.35707146zm4.6012143 2.80847619h-9.95828576c.16121429 1.22892859.54530953 2.09138099 1.15052381 2.58735719.60521429.4950952 1.44211905.7435238 2.51159524.7435238.64661905 0 1.27209521-.1057143 1.87730951-.3171429.5285714-.184119 1.0959048-.4563333 1.702881-.8157619.1506428-.0898571.3453333-.0607857.4554523.074881l1.1602143 1.4280238c.3435715.4237381.2193572 1.0492142-.2501904 1.3275952-1.647381.9787381-3.4471667 1.4676667-5.39847623 1.4676667-2.60409524 0-4.60121429-.6968334-5.994-2.0922619-1.39190477-1.3945477-2.08785715-3.2665715-2.08785715-5.61607147 0-1.48616666.29247619-2.82080952.87742858-4.00480952.58583333-1.184 1.44211904-2.11957143 2.5732619-2.80759524 1.12938095-.68890476 2.4807619-1.03247619 4.05502381-1.03247619 2.32042859 0 4.13695239.66071429 5.44869049 1.98214286 1.3108571 1.32142857 1.9671667 3.15645238 1.9671667 5.50595238 0 .60521428-.0308334 1.1285-.0907381 1.56897619z" fill="#121413" mask="url(#a)" transform="translate(58.142857 3.737176)"/><path d="m22.4832262 15.3564976c-.4845238.7435238-1.2104286 1.1144048-2.1794762 1.1144048-.9893095 0-1.719619-.3664762-2.1935714-1.1003095-.4739524-.7338334-.7109286-1.9002143-.7109286-3.4965 0-1.5601667.241381-2.71157147.7259048-3.45509528.4845238-.74264286 1.2104285-1.11440476 2.1785952-1.11440476.9893095 0 1.7205.36647619 2.1944524 1.10119047.4739524.73383334.7118095 1.89933337.7118095 3.49561907 0 1.5601666-.2422619 2.7115714-.7267857 3.4550952m-2.5195238-11.24711903c-.3004048.03083333-.6025714.03964286-.9020953.07135714-.4387142.04845239-.8747857.13214286-1.3002857.24578572-.5717381.15328571-1.1293809.36559524-1.6482619.64838095-1.1813571.64221429-2.0887381 1.54607143-2.7239047 2.71157143-.6360477 1.16461905-.9531905 2.52745239-.9531905 4.08761909 0 2.4587381.6994762 4.3730476 2.1019524 5.7394047 1.4033571 1.3672381 3.3247143 2.0508572 5.7658333 2.0508572 1.6147857 0 3.0119762-.3206667 4.1924524-.962881 1.1804762-.6430952 2.0887381-1.5460714 2.7247857-2.7115714.6351667-1.1655.9523095-2.5283334.9523095-4.0885 0-1.3681191-.2237619-2.56092859-.6536666-3.58988097-.2722143-.63780953-.3981905-1.37957143-.3981905-2.22880953 0-.95935714.1955714-1.79714285.5867143-2.51423809.0378809-.06783333.0828095-.1277381.1233333-.19292857.0317143-.03611905.0475714-.09161905.0475714-.14359524.0026429-.08545238-.0431666-.13742857-.1559285-.17354762-.0105715 0-.0678334-.02114286-.0784048-.0202619-.6871429-.13566667-1.4148095-.21935715-2.2076667-.21935715-.8976905 0-1.7980238.09426191-2.6666428.32507143-.3990715.10571429-.7902143.2405-1.1690238.40611905-.4131667.18059524-.7884524.41316667-1.2359762.5012619-.1339048.02642858-.2678096.04404762-.4017143.05814286" fill="#121413"/><path d="m20.3041024 25.7609857c-2.6481429 0-4.8337857-.7382381-6.4961429-2.1944524-.6334047-.5558809-.6968333-1.5187619-.1418333-2.1521666.5532381-.6334048 1.5178809-.6985953 2.1512857-.1427143 1.1055952.9690476 2.5732619 1.4394762 4.4866905 1.4394762 1.349619 0 2.5142381-.2616429 3.4639047-.777881.3206667-.1744286.6395715-.4034762.9743334-.6994762.6307619-.5585238 1.5945238-.4977381 2.1521666.1321429.5576429.6307619.4995 1.5945238-.1321428 2.1521667-.5083095.4501666-1.0104524.8078333-1.5372619 1.0941428-1.4007143.7629048-3.0569048 1.1487619-4.921 1.1487619" fill="#e02130"/><g fill="#121413"><path d="m9.69479286 15.8180286c-.09161905-.1568096-.28630953-.2096667-.45280953-.1365476-.49861904.2193571-.97697619.3285952-1.43330952.3285952-.52416667 0-.90826191-.1462381-1.14964286-.4404762-.24314285-.2933571-.36295238-.7796429-.36295238-1.4588571v-6.71726195h2.79966667c.19469047 0 .3532619-.15769047.3532619-.3515v-2.32395238c0-.19469047-.15857143-.35238095-.3532619-.35238095h-2.79966667v-4.18011905c0-.10042857-.08016667-.18323809-.18059524-.17883333-1.20514285.05461905-2.77059523.3347619-4.44969047 1.15845238-.0925.04404762-.15240476.13566667-.15240476.23785714v2.96264286h-1.16021429c-.19557143 0-.35326191.15769048-.35326191.35238095v1.7945c0 .48716667.39378572.88095238.88095239.88095238h.63252381v6.77276195c0 3.5053095 1.75485714 5.2663333 5.26633333 5.2848333.76730952 0 1.53902381-.1004286 2.3142619-.3030476.42638096-.1101191.82369048-.2457857 1.19104767-.4061191.4757142-.2070238.6483809-.7963809.387619-1.2447857z" mask="url(#b)" transform="translate(0 .213367)"/><path d="m54.2973238 4.9876c-.7972619-.58407143-1.8544048-.87654762-3.1740714-.87654762-.9179524 0-1.8667381.10571429-2.6992381.39554762-.8245714.28630952-1.6332857.61842857-2.2931191 1.08004762-.1154047.08104762-.2290476.1665-.3312381.25723809-.3145-.54971428-.8122381-.97609523-1.4940952-1.27914285-.6800952-.30216667-1.4923333-.45369048-2.4340714-.45369048-.9805 0-1.9372143.16209524-2.8278572.45280952-.4255.13830953-.8377857.29952381-1.2254047.48716667-.1902857.0925-.3761667.19204762-.5532381.29864286-.2008572.12069047-.3876191.24402381-.5585238.3885l-.3462143-1.48176191c-.0185-.0757619-.0977857-.13038095-.1885238-.12773809-.2061429.00616667-.4105238.01585714-.6149048.02819047-.2096667.01321429-.4184524.02907143-.6272381.04845239-.2105476.01938095-.4210952.04228571-.6307619.06783333-.2087857.02642857-.4184524.0555-.6272381.08897619-.2052619.03259524-.4122857.06959524-.6166667.11011905-.2008571.0387619-.3999523.08280952-.5999285.13038095-.0819286.0202619-.1638572.04140476-.2457857.06166667-.0792858.01938095-.1603334.037-.2360953.06783333-.0607857.02642857-.1198095.06254762-.1629762.11364286-.0572619.06607143-.0678333.15064285-.0581428.23433333.0132143.10835714.0440476.21319048.0651905.31978571.0237857.11011905.0440476.22111905.0634285.333.0140953.08192858.0281905.1647381.0405238.24754762.0880953.55147619.1092381 1.10383334.1092381 1.66235715v.56645238.62283333.83338095.88359526.777.5083095.111881 5.7860952c0 .9760952.4713096 1.4641429 1.4139286 1.4641429h3.1758333c.2017381 0 .3655953-.1576905.3655953-.352381v-5.698881-.5867142l-.0017619-3.54495242v-.44840476-.03964286c.9690476-.91002381 1.9680476-1.22540476 1.9680476-1.22540476.1753095-.06166667.3559047-.10835714.5497143-.13478571.1180476-.01585715.2378571-.02378572.3567857-.02378572.9435 0 1.4148095.48804762 1.4148095 1.46414286l.000881 9.70985717c0 .4871666.4096428.8809524.9144285.8809524h3.6841429c.2017381 0 .3664762-.1576905.3664762-.352381v-5.698881-.3338809-.500381-.3488571-1.1346667-1.18928568c0-.33916667-.0017619-.03964286-.0017619-.37792857l-.000881-.73471429c.1585715-.15064286.3312381-.29511905.5135953-.43166666.1541666-.11540477.3180238-.22552381.4862857-.33035715.1383095-.08280952.2792619-.16297619.4255-.23697619.1065952-.05373809.2149524-.10483333.3268333-.15240476.0704762-.02995238.1462381-.05461905.2114286-.08280952.165619-.04933334.3294762-.09514286.5065476-.12069048.1339048-.01938095.2686905-.02907143.4034762-.02907143.9435 0 1.4148095.48804762 1.4148095 1.46414286l.000881 9.70985717c0 .4871666.4096428.8809524.9144285.8809524h3.6850238c.2017381 0 .3655953-.1576905.3655953-.352381v-5.698881-1.1249761-4.6091429c0-1.03159524-.3990714-1.83854762-1.1936905-2.4235"/></g></g></svg>