<?xml version="1.0" encoding="UTF-8"?><!DOCTYPE svg PUBLIC "-//W3C//DTD SVG 1.1//EN" "http://www.w3.org/Graphics/SVG/1.1/DTD/svg11.dtd"><svg version="1.1" xmlns="http://www.w3.org/2000/svg" xmlns:xlink="http://www.w3.org/1999/xlink" x="0" y="0" width="230" height="81" viewBox="0, 0, 230, 81">  <g id="Layer_1">    <g>      <path d="M35.047,17.894 L35.047,43.866 C35.047,58.1 28.003,62.958 18.658,62.958 C9.312,62.958 2.199,58.1 2.199,43.866 L2.199,35.384 C4.783,35.418 2.854,35.398 7.987,35.389 L7.987,44.001 C7.987,54.66 12.66,58.033 18.658,58.033 C24.725,58.033 29.468,54.66 29.468,44.001 L29.468,17.894 L35.047,17.894 z" fill="#151C1F"/>      <g>        <path d="M35.047,17.894 L35.047,43.866 C35.047,58.1 28.003,62.958 18.658,62.958 C9.312,62.958 2.199,58.1 2.199,43.866 L2.199,35.384 C4.783,35.418 2.854,35.398 7.987,35.389 L7.987,44.001 C7.987,54.66 12.66,58.033 18.658,58.033 C24.725,58.033 29.468,54.66 29.468,44.001 L29.468,17.894 L35.047,17.894 z" fill="#151C1F"/>        <path d="M35.047,17.894 L35.047,43.866 C35.047,58.1 28.003,62.958 18.658,62.958 C9.312,62.958 2.199,58.1 2.199,43.866 L2.199,35.384 C4.783,35.418 2.854,35.398 7.987,35.389 L7.987,44.001 C7.987,54.66 12.66,58.033 18.658,58.033 C24.725,58.033 29.468,54.66 29.468,44.001 L29.468,17.894 L35.047,17.894 z" fill-opacity="0" stroke="#151C1F" stroke-width="1.5" stroke-linecap="round" stroke-linejoin="round"/>      </g>    </g>    <g>      <g>        <path d="M7.987,17.894 L7.987,26.877 C2.86,26.882 4.789,26.894 2.199,26.874 L2.199,17.894 L7.987,17.894 z" fill="#151C1F"/>        <path d="M7.987,17.894 L7.987,26.877 C2.86,26.882 4.789,26.894 2.199,26.874 L2.199,17.894 L7.987,17.894 z" fill-opacity="0" stroke="#151C1F" stroke-width="1"/>      </g>      <g>        <path d="M7.987,17.894 L7.987,26.636 C2.86,26.641 4.789,26.652 2.199,26.634 L2.199,17.894 L7.987,17.894 z" fill="#151C1F"/>        <path d="M7.987,17.894 L7.987,26.636 C2.86,26.641 4.789,26.652 2.199,26.634 L2.199,17.894 L7.987,17.894 z" fill-opacity="0" stroke="#151C1F" stroke-width="1.5" stroke-linecap="round" stroke-linejoin="round"/>      </g>    </g>    <g>      <g>        <path d="M44.673,62.148 L50.391,62.148 L50.391,38.402 C53.809,35.096 56.18,33.342 59.667,33.342 C64.131,33.342 66.083,35.973 66.083,42.112 L66.083,62.148 L71.802,62.148 L71.802,41.37 C71.802,33.005 68.594,28.553 61.48,28.553 C56.808,28.553 53.321,30.981 50.112,34.084 L49.903,34.084 L49.415,29.362 L44.673,29.362 z" fill="#151C1F"/>        <path d="M44.673,62.148 L50.391,62.148 L50.391,38.402 C53.809,35.096 56.18,33.342 59.667,33.342 C64.131,33.342 66.083,35.973 66.083,42.112 L66.083,62.148 L71.802,62.148 L71.802,41.37 C71.802,33.005 68.594,28.553 61.48,28.553 C56.808,28.553 53.321,30.981 50.112,34.084 L49.903,34.084 L49.415,29.362 L44.673,29.362 z" fill-opacity="0" stroke="#151C1F" stroke-width="1"/>      </g>      <g>        <path d="M44.673,62.148 L50.391,62.148 L50.391,38.402 C53.809,35.096 56.18,33.342 59.667,33.342 C64.131,33.342 66.083,35.973 66.083,42.112 L66.083,62.148 L71.802,62.148 L71.802,41.37 C71.802,33.005 68.594,28.553 61.48,28.553 C56.808,28.553 53.321,30.981 50.112,34.084 L49.903,34.084 L49.415,29.362 L44.673,29.362 z" fill="#151C1F"/>        <path d="M44.673,62.148 L50.391,62.148 L50.391,38.402 C53.809,35.096 56.18,33.342 59.667,33.342 C64.131,33.342 66.083,35.973 66.083,42.112 L66.083,62.148 L71.802,62.148 L71.802,41.37 C71.802,33.005 68.594,28.553 61.48,28.553 C56.808,28.553 53.321,30.981 50.112,34.084 L49.903,34.084 L49.415,29.362 L44.673,29.362 z" fill-opacity="0" stroke="#151C1F" stroke-width="1.5" stroke-linecap="round" stroke-linejoin="round"/>      </g>    </g>    <g>      <g>        <path d="M88.54,29.362 L88.54,62.148 L82.821,62.148 L82.821,29.362 L88.54,29.362 z" fill="#151C1F"/>        <path d="M88.54,29.362 L88.54,62.148 L82.821,62.148 L82.821,29.362 L88.54,29.362 z" fill-opacity="0" stroke="#151C1F" stroke-width="1"/>      </g>      <g>        <path d="M88.54,29.362 L88.54,62.148 L82.821,62.148 L82.821,29.362 L88.54,29.362 z" fill="#151C1F"/>        <path d="M88.54,29.362 L88.54,62.148 L82.821,62.148 L82.821,29.362 L88.54,29.362 z" fill-opacity="0" stroke="#151C1F" stroke-width="1.5" stroke-linecap="round" stroke-linejoin="round"/>      </g>    </g>    <g>      <g>        <path d="M110.648,62.958 C112.741,62.958 115.042,62.35 116.925,61.743 L115.809,57.561 C114.693,57.966 113.159,58.438 111.973,58.438 C108.068,58.438 106.743,56.144 106.743,52.096 L106.743,33.882 L115.879,33.882 L115.879,29.362 L106.743,29.362 L106.743,20.188 L101.931,20.188 L101.233,29.362 L95.933,29.7 L95.933,33.882 L100.954,33.882 L100.954,52.029 C100.954,58.505 103.395,62.958 110.648,62.958 z" fill="#151C1F"/>        <path d="M110.648,62.958 C112.741,62.958 115.042,62.35 116.925,61.743 L115.809,57.561 C114.693,57.966 113.159,58.438 111.973,58.438 C108.068,58.438 106.743,56.144 106.743,52.096 L106.743,33.882 L115.879,33.882 L115.879,29.362 L106.743,29.362 L106.743,20.188 L101.931,20.188 L101.233,29.362 L95.933,29.7 L95.933,33.882 L100.954,33.882 L100.954,52.029 C100.954,58.505 103.395,62.958 110.648,62.958 z" fill-opacity="0" stroke="#151C1F" stroke-width="1"/>      </g>      <g>        <path d="M110.648,62.958 C112.741,62.958 115.042,62.35 116.925,61.743 L115.809,57.561 C114.693,57.966 113.159,58.438 111.973,58.438 C108.068,58.438 106.743,56.144 106.743,52.096 L106.743,33.882 L115.879,33.882 L115.879,29.362 L106.743,29.362 L106.743,20.188 L101.931,20.188 L101.233,29.362 L95.933,29.7 L95.933,33.882 L100.954,33.882 L100.954,52.029 C100.954,58.505 103.395,62.958 110.648,62.958 z" fill="#151C1F"/>        <path d="M110.648,62.958 C112.741,62.958 115.042,62.35 116.925,61.743 L115.809,57.561 C114.693,57.966 113.159,58.438 111.973,58.438 C108.068,58.438 106.743,56.144 106.743,52.096 L106.743,33.882 L115.879,33.882 L115.879,29.362 L106.743,29.362 L106.743,20.188 L101.931,20.188 L101.233,29.362 L95.933,29.7 L95.933,33.882 L100.954,33.882 L100.954,52.029 C100.954,58.505 103.395,62.958 110.648,62.958 z" fill-opacity="0" stroke="#151C1F" stroke-width="1.5" stroke-linecap="round" stroke-linejoin="round"/>      </g>    </g>    <g>      <g>        <path d="M123.551,75.978 L129.269,75.978 L129.269,64.914 L129.13,59.18 C132.268,61.541 135.407,62.958 138.545,62.958 C146.286,62.958 153.191,56.414 153.191,45.283 C153.191,35.096 148.518,28.553 139.8,28.553 C135.825,28.553 132.059,30.644 128.99,33.14 L128.781,33.14 L128.293,29.362 L123.551,29.362 z M137.569,58.303 C135.337,58.303 132.338,57.358 129.269,54.862 L129.269,37.66 C132.617,34.759 135.476,33.207 138.336,33.207 C144.752,33.207 147.263,38.065 147.263,45.283 C147.263,53.378 143.148,58.303 137.569,58.303 z" fill="#151C1F"/>        <path d="M123.551,75.978 L129.269,75.978 L129.269,64.914 L129.13,59.18 C132.268,61.541 135.407,62.958 138.545,62.958 C146.286,62.958 153.191,56.414 153.191,45.283 C153.191,35.096 148.518,28.553 139.8,28.553 C135.825,28.553 132.059,30.644 128.99,33.14 L128.781,33.14 L128.293,29.362 L123.551,29.362 z M137.569,58.303 C135.337,58.303 132.338,57.358 129.269,54.862 L129.269,37.66 C132.617,34.759 135.476,33.207 138.336,33.207 C144.752,33.207 147.263,38.065 147.263,45.283 C147.263,53.378 143.148,58.303 137.569,58.303 z" fill-opacity="0" stroke="#151C1F" stroke-width="1"/>      </g>      <g>        <path d="M123.551,75.978 L129.269,75.978 L129.269,64.914 L129.13,59.18 C132.268,61.541 135.407,62.958 138.545,62.958 C146.286,62.958 153.191,56.414 153.191,45.283 C153.191,35.096 148.518,28.553 139.8,28.553 C135.825,28.553 132.059,30.644 128.99,33.14 L128.781,33.14 L128.293,29.362 L123.551,29.362 z M137.569,58.303 C135.337,58.303 132.338,57.358 129.269,54.862 L129.269,37.66 C132.617,34.759 135.476,33.207 138.336,33.207 C144.752,33.207 147.263,38.065 147.263,45.283 C147.263,53.378 143.148,58.303 137.569,58.303 z" fill="#151C1F"/>        <path d="M123.551,75.978 L129.269,75.978 L129.269,64.914 L129.13,59.18 C132.268,61.541 135.407,62.958 138.545,62.958 C146.286,62.958 153.191,56.414 153.191,45.283 C153.191,35.096 148.518,28.553 139.8,28.553 C135.825,28.553 132.059,30.644 128.99,33.14 L128.781,33.14 L128.293,29.362 L123.551,29.362 z M137.569,58.303 C135.337,58.303 132.338,57.358 129.269,54.862 L129.269,37.66 C132.617,34.759 135.476,33.207 138.336,33.207 C144.752,33.207 147.263,38.065 147.263,45.283 C147.263,53.378 143.148,58.303 137.569,58.303 z" fill-opacity="0" stroke="#151C1F" stroke-width="1.5" stroke-linecap="round" stroke-linejoin="round"/>      </g>    </g>    <g>      <g>        <path d="M169.092,62.958 C173.346,62.958 177.112,60.799 180.321,58.235 L180.53,58.235 L181.018,62.148 L185.76,62.148 L185.76,42.045 C185.76,33.882 182.273,28.553 173.974,28.553 C168.534,28.553 163.792,30.846 160.653,32.803 L162.885,36.648 C165.535,34.894 169.092,33.14 172.998,33.14 C178.577,33.14 179.972,37.188 179.972,41.37 C165.535,42.922 159.189,46.497 159.189,53.648 C159.189,59.517 163.443,62.958 169.092,62.958 z M170.766,58.505 C167.418,58.505 164.768,56.954 164.768,53.243 C164.768,49.061 168.674,46.362 179.972,45.013 L179.972,54.12 C176.694,56.954 174.044,58.505 170.766,58.505 z" fill="#151C1F"/>        <path d="M169.092,62.958 C173.346,62.958 177.112,60.799 180.321,58.235 L180.53,58.235 L181.018,62.148 L185.76,62.148 L185.76,42.045 C185.76,33.882 182.273,28.553 173.974,28.553 C168.534,28.553 163.792,30.846 160.653,32.803 L162.885,36.648 C165.535,34.894 169.092,33.14 172.998,33.14 C178.577,33.14 179.972,37.188 179.972,41.37 C165.535,42.922 159.189,46.497 159.189,53.648 C159.189,59.517 163.443,62.958 169.092,62.958 z M170.766,58.505 C167.418,58.505 164.768,56.954 164.768,53.243 C164.768,49.061 168.674,46.362 179.972,45.013 L179.972,54.12 C176.694,56.954 174.044,58.505 170.766,58.505 z" fill-opacity="0" stroke="#151C1F" stroke-width="1"/>      </g>      <g>        <path d="M169.092,62.958 C173.346,62.958 177.112,60.799 180.321,58.235 L180.53,58.235 L181.018,62.148 L185.76,62.148 L185.76,42.045 C185.76,33.882 182.273,28.553 173.974,28.553 C168.534,28.553 163.792,30.846 160.653,32.803 L162.885,36.648 C165.535,34.894 169.092,33.14 172.998,33.14 C178.577,33.14 179.972,37.188 179.972,41.37 C165.535,42.922 159.189,46.497 159.189,53.648 C159.189,59.517 163.443,62.958 169.092,62.958 z M170.766,58.505 C167.418,58.505 164.768,56.954 164.768,53.243 C164.768,49.061 168.674,46.362 179.972,45.013 L179.972,54.12 C176.694,56.954 174.044,58.505 170.766,58.505 z" fill="#151C1F"/>        <path d="M169.092,62.958 C173.346,62.958 177.112,60.799 180.321,58.235 L180.53,58.235 L181.018,62.148 L185.76,62.148 L185.76,42.045 C185.76,33.882 182.273,28.553 173.974,28.553 C168.534,28.553 163.792,30.846 160.653,32.803 L162.885,36.648 C165.535,34.894 169.092,33.14 172.998,33.14 C178.577,33.14 179.972,37.188 179.972,41.37 C165.535,42.922 159.189,46.497 159.189,53.648 C159.189,59.517 163.443,62.958 169.092,62.958 z M170.766,58.505 C167.418,58.505 164.768,56.954 164.768,53.243 C164.768,49.061 168.674,46.362 179.972,45.013 L179.972,54.12 C176.694,56.954 174.044,58.505 170.766,58.505 z" fill-opacity="0" stroke="#151C1F" stroke-width="1.5" stroke-linecap="round" stroke-linejoin="round"/>      </g>    </g>    <g>      <g>        <path d="M195.864,76.247 C202.699,76.247 206.186,71.323 208.557,64.847 L221.32,29.362 L215.741,29.362 L209.673,47.509 C208.767,50.41 207.79,53.783 206.814,56.751 L206.535,56.751 C205.489,53.716 204.303,50.342 203.257,47.509 L196.353,29.362 L190.425,29.362 L204.024,62.216 L203.257,64.644 C201.862,68.692 199.421,71.66 195.586,71.66 C194.749,71.66 193.702,71.39 193.005,71.188 L191.889,75.573 C193.005,75.978 194.33,76.247 195.864,76.247 z" fill="#151C1F"/>        <path d="M195.864,76.247 C202.699,76.247 206.186,71.323 208.557,64.847 L221.32,29.362 L215.741,29.362 L209.673,47.509 C208.767,50.41 207.79,53.783 206.814,56.751 L206.535,56.751 C205.489,53.716 204.303,50.342 203.257,47.509 L196.353,29.362 L190.425,29.362 L204.024,62.216 L203.257,64.644 C201.862,68.692 199.421,71.66 195.586,71.66 C194.749,71.66 193.702,71.39 193.005,71.188 L191.889,75.573 C193.005,75.978 194.33,76.247 195.864,76.247 z" fill-opacity="0" stroke="#151C1F" stroke-width="1"/>      </g>      <g>        <path d="M195.864,76.247 C202.699,76.247 206.186,71.323 208.557,64.847 L221.32,29.362 L215.741,29.362 L209.673,47.509 C208.767,50.41 207.79,53.783 206.814,56.751 L206.535,56.751 C205.489,53.716 204.303,50.342 203.257,47.509 L196.353,29.362 L190.425,29.362 L204.024,62.216 L203.257,64.644 C201.862,68.692 199.421,71.66 195.586,71.66 C194.749,71.66 193.702,71.39 193.005,71.188 L191.889,75.573 C193.005,75.978 194.33,76.247 195.864,76.247 z" fill="#151C1F"/>        <path d="M195.864,76.247 C202.699,76.247 206.186,71.323 208.557,64.847 L221.32,29.362 L215.741,29.362 L209.673,47.509 C208.767,50.41 207.79,53.783 206.814,56.751 L206.535,56.751 C205.489,53.716 204.303,50.342 203.257,47.509 L196.353,29.362 L190.425,29.362 L204.024,62.216 L203.257,64.644 C201.862,68.692 199.421,71.66 195.586,71.66 C194.749,71.66 193.702,71.39 193.005,71.188 L191.889,75.573 C193.005,75.978 194.33,76.247 195.864,76.247 z" fill-opacity="0" stroke="#151C1F" stroke-width="1.5" stroke-linecap="round" stroke-linejoin="round"/>      </g>    </g>    <g>      <path d="M85.75,15.465 C87.982,15.517 89.726,16.882 89.726,19.041 C89.726,21.132 87.982,22.616 85.75,22.616 C83.519,22.616 79.109,15.698 78.294,13.772 C77.892,12.824 81.175,15.358 85.75,15.465 z" fill="#429A3A"/>      <path d="M85.75,15.465 C87.982,15.517 89.726,16.882 89.726,19.041 C89.726,21.132 87.982,22.616 85.75,22.616 C83.519,22.616 79.109,15.698 78.294,13.772 C77.892,12.824 81.175,15.358 85.75,15.465 z" fill-opacity="0" stroke="#429A3A" stroke-width="1.5" stroke-linecap="round" stroke-linejoin="round"/>    </g>  </g></svg>